<?xml version="1.0" standalone="no"?><svg xmlns="http://www.w3.org/2000/svg" viewBox="0 0 1440 320"><path fill="#0099ff" fill-opacity="1" d="M0,128L21.8,144C43.6,160,87,192,131,186.7C174.5,181,218,139,262,106.7C305.5,75,349,53,393,74.7C436.4,96,480,160,524,197.3C567.3,235,611,245,655,245.3C698.2,245,742,235,785,202.7C829.1,171,873,117,916,101.3C960,85,1004,107,1047,144C1090.9,181,1135,235,1178,256C1221.8,277,1265,267,1309,240C1352.7,213,1396,171,1418,149.3L1440,128L1440,0L1418.2,0C1396.4,0,1353,0,1309,0C1265.5,0,1222,0,1178,0C1134.5,0,1091,0,1047,0C1003.6,0,960,0,916,0C872.7,0,829,0,785,0C741.8,0,698,0,655,0C610.9,0,567,0,524,0C480,0,436,0,393,0C349.1,0,305,0,262,0C218.2,0,175,0,131,0C87.3,0,44,0,22,0L0,0Z"></path></svg>