<svg width="21" height="20" viewBox="0 0 21 20" fill="none" xmlns="http://www.w3.org/2000/svg">
<path d="M11.4071 12.0466L9.71374 10.3733L9.73374 10.3533C10.8937 9.05992 11.7204 7.57325 12.2071 5.99992H14.1604V4.66659H9.49374V3.33325H8.16041V4.66659H3.49374V5.99325H10.9404C10.4937 7.27992 9.78708 8.49992 8.82708 9.56659C8.20708 8.87992 7.69374 8.12659 7.28708 7.33325H5.95374C6.44041 8.41992 7.10708 9.44659 7.94041 10.3733L4.54708 13.7199L5.49374 14.6666L8.82708 11.3333L10.9004 13.4066L11.4071 12.0466ZM15.1604 8.66658H13.8271L10.8271 16.6666H12.1604L12.9071 14.6666H16.0737L16.8271 16.6666H18.1604L15.1604 8.66658ZM13.4137 13.3333L14.4937 10.4466L15.5737 13.3333H13.4137Z" fill="#AD3278"/>
</svg>
