<svg width="37" height="36" viewBox="0 0 37 36" fill="none" xmlns="http://www.w3.org/2000/svg">
<circle cx="18.5" cy="18" r="18" fill="white"/>
<path d="M12.0678 13.5973C13.1754 13.5973 14.0734 12.6993 14.0734 11.5916C14.0734 10.4839 13.1754 9.58594 12.0678 9.58594C10.9601 9.58594 10.0621 10.4839 10.0621 11.5916C10.0621 12.6993 10.9601 13.5973 12.0678 13.5973Z" fill="#2B2B39"/>
<path d="M15.9661 15.1173V26.2447H19.421V20.742C19.421 19.29 19.6942 17.8838 21.4945 17.8838C23.2701 17.8838 23.2921 19.5439 23.2921 20.8336V26.2456H26.7489V20.1434C26.7489 17.1459 26.1035 14.8423 22.6 14.8423C20.9179 14.8423 19.7904 15.7654 19.3294 16.639H19.2826V15.1173H15.9661ZM10.3359 15.1173H13.7964V26.2447H10.3359V15.1173Z" fill="#2B2B39"/>
</svg>
