<svg width="175" height="175" viewBox="0 0 175 175" fill="none" xmlns="http://www.w3.org/2000/svg">
<path d="M133.77 61.6C133.77 61.6 131.061 56.399 129.57 55.566L125.174 57.813C124.696 58.0412 124.149 58.0746 123.647 57.906C123.145 57.7375 122.729 57.3802 122.486 56.91L118.79 49.7C118.79 49.7 118.433 47.796 119.777 47.138L123.277 45.346C123.277 45.346 128.877 43.869 134.82 51.058C136.86 53.2598 138.583 55.7362 139.937 58.415" stroke="black" stroke-width="3" stroke-miterlimit="10"/>
<path d="M133.574 61.208C133.574 61.208 136.206 66.444 136.024 68.208L131.6 70.42C131.135 70.6739 130.788 71.0986 130.631 71.6043C130.474 72.11 130.521 72.6568 130.76 73.129L134.456 80.311C134.456 80.311 135.793 81.711 137.116 81.011L140.616 79.219C140.616 79.219 145.103 75.53 142.716 66.514C142.12 63.563 141.109 60.7114 139.713 58.044" stroke="black" stroke-width="3" stroke-miterlimit="10"/>
<path d="M125.3 112.231C125.431 121.862 121.732 131.15 115.017 138.055C108.301 144.959 99.1187 148.915 89.488 149.051C85.372 149.093 81.627 156.345 77.924 155.113C63.7 150.367 53.06 129.024 52.878 113.064C52.7001 108.233 53.4909 103.415 55.2039 98.8946C56.9169 94.374 59.5174 90.2419 62.8522 86.742C66.187 83.242 70.1886 80.445 74.6213 78.5156C79.0539 76.5863 83.8278 75.5637 88.6618 75.5081C93.4958 75.4525 98.292 76.365 102.768 78.1919C107.244 80.0188 111.309 82.723 114.723 86.1454C118.137 89.5677 120.832 93.6388 122.649 98.1188C124.465 102.599 125.367 107.397 125.3 112.231Z" fill="#FDCF01"/>
<path d="M51.429 161.476C50.2557 161.476 49.1304 161.01 48.3008 160.18C47.4711 159.351 47.005 158.225 47.005 157.052V147.147L46.746 147.098C45.0331 146.748 43.4937 145.816 42.3883 144.462C41.2828 143.107 40.679 141.412 40.679 139.664C40.679 137.916 41.2828 136.221 42.3883 134.866C43.4937 133.512 45.0331 132.58 46.746 132.23L47.005 132.174V117.11L46.746 117.054C45.0331 116.704 43.4937 115.772 42.3883 114.418C41.2828 113.063 40.679 111.368 40.679 109.62C40.679 107.872 41.2828 106.177 42.3883 104.822C43.4937 103.468 45.0331 102.536 46.746 102.186L47.005 102.137V87.066L46.746 87.017C45.0331 86.6665 43.4937 85.7353 42.3883 84.3807C41.2828 83.0262 40.679 81.3314 40.679 79.583C40.679 77.8346 41.2828 76.1398 42.3883 74.7853C43.4937 73.4307 45.0331 72.4995 46.746 72.149L47.005 72.093V65.352C47.0013 64.7687 47.113 64.1904 47.3337 63.6504C47.5544 63.1104 47.8796 62.6194 48.2908 62.2056C48.702 61.7919 49.1909 61.4635 49.7295 61.2394C50.2681 61.0153 50.8457 60.9 51.429 60.9H114.667C115.84 60.9 116.966 61.3661 117.795 62.1958C118.625 63.0254 119.091 64.1507 119.091 65.324V67.221H120.995C122.168 67.2228 123.292 67.6895 124.121 68.5188C124.95 69.3481 125.417 70.4722 125.419 71.645V157.045C125.417 158.218 124.95 159.342 124.121 160.171C123.292 161 122.168 161.467 120.995 161.469L51.429 161.476ZM119.091 158.956H120.995C121.499 158.954 121.981 158.753 122.337 158.396C122.692 158.039 122.892 157.556 122.892 157.052V71.652C122.89 71.1494 122.69 70.668 122.334 70.3126C121.979 69.9573 121.498 69.7568 120.995 69.755H119.091V158.956ZM54.6 138.404C54.7661 138.403 54.9307 138.435 55.0843 138.498C55.238 138.561 55.3777 138.653 55.4955 138.771C55.6132 138.888 55.7067 139.027 55.7704 139.18C55.8342 139.334 55.867 139.498 55.867 139.664C55.8617 141.411 55.2557 143.104 54.1507 144.457C53.0457 145.811 51.5089 146.743 49.798 147.098L49.539 147.147V157.052C49.539 157.557 49.7396 158.041 50.0967 158.398C50.4537 158.755 50.938 158.956 51.443 158.956H116.585V65.352C116.585 65.1023 116.536 64.855 116.44 64.6244C116.344 64.3938 116.204 64.1844 116.027 64.0081C115.85 63.8319 115.64 63.6923 115.409 63.5974C115.178 63.5025 114.931 63.4541 114.681 63.455H108.829V78.001C108.836 78.4097 108.731 78.8125 108.523 79.1647C108.315 79.5169 108.014 79.8046 107.653 79.996C107.385 80.1373 107.088 80.2117 106.785 80.213C106.369 80.2061 105.965 80.069 105.63 79.821L104.23 78.785C104.054 78.6614 103.843 78.5953 103.628 78.596C103.415 78.5954 103.207 78.6615 103.033 78.785L101.633 79.814C101.298 80.066 100.89 80.2035 100.471 80.206C100.167 80.208 99.8663 80.1359 99.596 79.996C99.2358 79.8034 98.9356 79.5153 98.7282 79.1635C98.5207 78.8116 98.4141 78.4094 98.42 78.001V63.455H62.174V68.516C62.174 68.8502 62.0413 69.1707 61.805 69.4069C61.5687 69.6432 61.2482 69.776 60.914 69.776C60.5798 69.776 60.2593 69.6432 60.0231 69.4069C59.7868 69.1707 59.654 68.8502 59.654 68.516V63.455H51.429C51.1793 63.4541 50.9319 63.5025 50.7009 63.5974C50.4699 63.6923 50.26 63.8319 50.0831 64.0081C49.9062 64.1844 49.7658 64.3938 49.6701 64.6244C49.5743 64.855 49.525 65.1023 49.525 65.352V79.583C49.525 79.9172 49.3923 80.2377 49.156 80.4739C48.9197 80.7102 48.5992 80.843 48.265 80.843C47.9308 80.843 47.6103 80.7102 47.374 80.4739C47.1378 80.2377 47.005 79.9172 47.005 79.583V74.683L46.578 74.837C45.7028 75.1464 44.9295 75.6907 44.3428 76.4101C43.7561 77.1296 43.3786 77.9965 43.2516 78.9161C43.1246 79.8357 43.253 80.7725 43.6227 81.6241C43.9924 82.4756 44.5892 83.2091 45.3478 83.7442C46.1064 84.2793 46.9975 84.5954 47.9237 84.658C48.85 84.7206 49.7756 84.5273 50.5993 84.0991C51.423 83.6709 52.113 83.0245 52.5939 82.2304C53.0749 81.4364 53.3281 80.5253 53.326 79.597C53.3498 79.2781 53.4932 78.9801 53.7275 78.7625C53.9619 78.545 54.2698 78.4241 54.5895 78.4241C54.9092 78.4241 55.2172 78.545 55.4515 78.7625C55.6858 78.9801 55.8293 79.2781 55.853 79.597C55.8477 81.3443 55.2417 83.0366 54.1367 84.3901C53.0317 85.7437 51.4949 86.6761 49.784 87.031L49.525 87.08V109.62C49.525 109.954 49.3923 110.275 49.156 110.511C48.9197 110.747 48.5992 110.88 48.265 110.88C47.9308 110.88 47.6103 110.747 47.374 110.511C47.1378 110.275 47.005 109.954 47.005 109.62V104.72L46.578 104.867C45.7028 105.176 44.9295 105.721 44.3428 106.44C43.7561 107.16 43.3786 108.027 43.2516 108.946C43.1246 109.866 43.253 110.803 43.6227 111.654C43.9924 112.506 44.5892 113.239 45.3478 113.774C46.1064 114.309 46.9975 114.625 47.9237 114.688C48.85 114.751 49.7756 114.557 50.5993 114.129C51.423 113.701 52.113 113.054 52.5939 112.26C53.0749 111.466 53.3281 110.555 53.326 109.627C53.3498 109.308 53.4932 109.01 53.7275 108.793C53.9619 108.575 54.2698 108.454 54.5895 108.454C54.9092 108.454 55.2172 108.575 55.4515 108.793C55.6858 109.01 55.8293 109.308 55.853 109.627C55.849 111.375 55.2435 113.068 54.1383 114.421C53.033 115.775 51.4955 116.707 49.784 117.061L49.525 117.117V139.671C49.525 140.005 49.3923 140.326 49.156 140.562C48.9197 140.798 48.5992 140.931 48.265 140.931C47.9308 140.931 47.6103 140.798 47.374 140.562C47.1378 140.326 47.005 140.005 47.005 139.671V134.771L46.578 134.925C45.7028 135.234 44.9295 135.779 44.3428 136.498C43.7561 137.218 43.3786 138.085 43.2516 139.004C43.1246 139.924 43.253 140.861 43.6227 141.712C43.9924 142.564 44.5892 143.297 45.3478 143.832C46.1064 144.367 46.9975 144.683 47.9237 144.746C48.85 144.809 49.7756 144.615 50.5993 144.187C51.423 143.759 52.113 143.112 52.5939 142.318C53.0749 141.524 53.3281 140.613 53.326 139.685C53.3232 139.517 53.3542 139.349 53.4171 139.193C53.48 139.037 53.5737 138.895 53.6924 138.775C53.8112 138.656 53.9527 138.562 54.1086 138.498C54.2645 138.434 54.4316 138.402 54.6 138.404ZM103.6 77.7C104.015 77.7 104.42 77.8324 104.755 78.078L106.155 79.107C106.317 79.2131 106.507 79.2691 106.701 79.268C106.886 79.27 107.069 79.219 107.226 79.121C107.429 79.0058 107.596 78.8373 107.71 78.6336C107.823 78.4299 107.879 78.199 107.87 77.966V63.455H99.33V78.001C99.3208 78.2348 99.3777 78.4665 99.494 78.6696C99.6104 78.8726 99.7816 79.0387 99.988 79.149C100.139 79.2425 100.314 79.2911 100.492 79.289C100.68 79.2901 100.864 79.2392 101.024 79.142L102.424 78.099C102.762 77.8416 103.175 77.7015 103.6 77.7Z" fill="#000102"/>
<path d="M60.9 95.389C61.1095 95.3909 61.3173 95.3511 61.5113 95.272C61.7053 95.1929 61.8817 95.076 62.0302 94.9282C62.1787 94.7803 62.2963 94.6045 62.3763 94.4108C62.4562 94.2171 62.4969 94.0095 62.496 93.8V87.5C62.496 87.0804 62.3293 86.678 62.0326 86.3814C61.7359 86.0847 61.3336 85.918 60.914 85.918C60.4944 85.918 60.092 86.0847 59.7953 86.3814C59.4987 86.678 59.332 87.0804 59.332 87.5V93.8C59.3301 94.2184 59.4941 94.6205 59.7879 94.9182C60.0818 95.216 60.4816 95.3853 60.9 95.389Z" fill="#170C31"/>
<path d="M60.9 82.747C61.316 82.7508 61.7167 82.5906 62.0155 82.301C62.3142 82.0115 62.4868 81.6159 62.496 81.2V74.9C62.496 74.4804 62.3293 74.078 62.0327 73.7814C61.736 73.4847 61.3336 73.318 60.914 73.318C60.4944 73.318 60.092 73.4847 59.7954 73.7814C59.4987 74.078 59.332 74.4804 59.332 74.9V81.2C59.3411 81.6111 59.5098 82.0025 59.8025 82.2912C60.0952 82.58 60.4889 82.7435 60.9 82.747Z" fill="#170C31"/>
<path d="M60.9 133.336C61.3196 133.336 61.722 133.169 62.0186 132.873C62.3153 132.576 62.482 132.174 62.482 131.754V125.454C62.482 125.034 62.3153 124.632 62.0186 124.335C61.722 124.039 61.3196 123.872 60.9 123.872C60.4804 123.872 60.078 124.039 59.7814 124.335C59.4847 124.632 59.318 125.034 59.318 125.454V131.754C59.318 132.174 59.4847 132.576 59.7814 132.873C60.078 133.169 60.4804 133.336 60.9 133.336Z" fill="#170C31"/>
<path d="M62.496 157.052V150.752C62.496 150.332 62.3293 149.93 62.0327 149.633C61.736 149.337 61.3336 149.17 60.914 149.17C60.4944 149.17 60.092 149.337 59.7954 149.633C59.4987 149.93 59.332 150.332 59.332 150.752V157.052C59.332 157.472 59.4987 157.874 59.7954 158.171C60.092 158.467 60.4944 158.634 60.914 158.634C61.3336 158.634 61.736 158.467 62.0327 158.171C62.3293 157.874 62.496 157.472 62.496 157.052Z" fill="#170C31"/>
<path d="M60.9 108.038C61.3184 108.038 61.7197 107.872 62.0162 107.577C62.3127 107.282 62.4801 106.881 62.482 106.463V100.163C62.482 99.7434 62.3153 99.341 62.0186 99.0444C61.722 98.7477 61.3196 98.581 60.9 98.581C60.4804 98.581 60.078 98.7477 59.7814 99.0444C59.4847 99.341 59.318 99.7434 59.318 100.163V106.463C59.3198 106.881 59.4873 107.282 59.7838 107.577C60.0803 107.872 60.4816 108.038 60.9 108.038Z" fill="#170C31"/>
<path d="M60.9 145.985C61.3196 145.985 61.722 145.818 62.0186 145.522C62.3153 145.225 62.482 144.823 62.482 144.403V138.103C62.482 137.683 62.3153 137.281 62.0186 136.984C61.722 136.688 61.3196 136.521 60.9 136.521C60.4804 136.521 60.078 136.688 59.7814 136.984C59.4847 137.281 59.318 137.683 59.318 138.103V144.403C59.318 144.823 59.4847 145.225 59.7814 145.522C60.078 145.818 60.4804 145.985 60.9 145.985Z" fill="#170C31"/>
<path d="M60.9 120.687C61.3184 120.687 61.7197 120.521 62.0162 120.226C62.3127 119.931 62.4801 119.53 62.482 119.112V112.812C62.482 112.392 62.3153 111.99 62.0186 111.693C61.722 111.397 61.3196 111.23 60.9 111.23C60.4804 111.23 60.078 111.397 59.7814 111.693C59.4847 111.99 59.318 112.392 59.318 112.812V119.112C59.3198 119.53 59.4873 119.931 59.7838 120.226C60.0803 120.521 60.4816 120.687 60.9 120.687Z" fill="#170C31"/>
<path d="M89.369 115.948C91.871 115.949 94.3173 115.209 96.3983 113.82C98.4794 112.431 100.102 110.456 101.06 108.144C102.019 105.833 102.27 103.29 101.783 100.836C101.296 98.3815 100.091 96.127 98.3227 94.3573C96.554 92.5876 94.3001 91.3822 91.8463 90.8936C89.3924 90.4049 86.8488 90.655 84.537 91.6122C82.2253 92.5693 80.2494 94.1906 78.8592 96.2709C77.469 98.3511 76.727 100.797 76.727 103.299C76.727 106.653 78.0587 109.869 80.4293 112.241C82.8 114.613 86.0155 115.946 89.369 115.948ZM89.369 93.814C91.245 93.814 93.0788 94.3703 94.6386 95.4125C96.1984 96.4547 97.4141 97.9361 98.132 99.6692C98.8499 101.402 99.0377 103.31 98.6718 105.149C98.3058 106.989 97.4024 108.679 96.0759 110.006C94.7494 111.332 93.0593 112.236 91.2194 112.602C89.3795 112.968 87.4724 112.78 85.7392 112.062C84.0061 111.344 82.5247 110.128 81.4825 108.569C80.4403 107.009 79.884 105.175 79.884 103.299C79.8822 102.052 80.1261 100.817 80.602 99.6649C81.0778 98.5126 81.7762 97.4653 82.6571 96.583C83.5381 95.7008 84.5843 95.0009 85.736 94.5233C86.8877 94.0458 88.1222 93.8 89.369 93.8V93.814Z" fill="#000102"/>
<path d="M83.839 103.299C83.839 101.832 84.4214 100.424 85.4583 99.3862C86.4952 98.348 87.9017 97.7639 89.369 97.762C89.5788 97.762 89.78 97.6787 89.9283 97.5303C90.0767 97.382 90.16 97.1808 90.16 96.971C90.16 96.7612 90.0767 96.56 89.9283 96.4117C89.78 96.2633 89.5788 96.18 89.369 96.18C87.4839 96.1874 85.6781 96.94 84.3458 98.2737C83.0134 99.6074 82.2625 101.414 82.257 103.299C82.257 103.509 82.3404 103.71 82.4887 103.858C82.637 104.007 82.8382 104.09 83.048 104.09C83.2578 104.09 83.459 104.007 83.6073 103.858C83.7557 103.71 83.839 103.509 83.839 103.299Z" fill="#000102"/>
<path d="M71.981 134.918H106.764C108.018 134.918 109.221 134.422 110.11 133.538C110.999 132.654 111.503 131.454 111.51 130.2V122.5C111.507 121.253 111.136 120.034 110.444 118.997C109.752 117.96 108.769 117.15 107.618 116.669C106.277 116.118 104.986 115.45 103.761 114.674C103.17 114.315 102.477 114.16 101.79 114.232C101.102 114.304 100.457 114.6 99.953 115.073C97.0484 117.686 93.2795 119.132 89.3725 119.132C85.4655 119.132 81.6966 117.686 78.792 115.073C78.2881 114.6 77.6429 114.304 76.9552 114.232C76.2675 114.16 75.5751 114.315 74.984 114.674C73.7583 115.449 72.4678 116.116 71.127 116.669C69.9736 117.146 68.9879 117.955 68.295 118.993C67.6021 120.031 67.2331 121.252 67.235 122.5V130.2C67.2424 131.454 67.7457 132.654 68.6349 133.538C69.5242 134.422 70.7271 134.918 71.981 134.918ZM70.399 122.458C70.402 121.836 70.5881 121.229 70.9342 120.712C71.2804 120.196 71.771 119.792 72.345 119.553C73.8522 118.922 75.3161 118.193 76.727 117.369C80.1987 120.537 84.7288 122.293 89.4285 122.293C94.1282 122.293 98.6583 120.537 102.13 117.369C103.506 118.23 104.951 118.977 106.449 119.602C107.007 119.845 107.482 120.243 107.819 120.75C108.156 121.257 108.339 121.85 108.346 122.458V130.158C108.344 130.576 108.177 130.977 107.88 131.272C107.584 131.567 107.182 131.733 106.764 131.733H71.981C71.5626 131.733 71.1613 131.567 70.8648 131.272C70.5683 130.977 70.4008 130.576 70.399 130.158V122.458Z" fill="#000102"/>
<path d="M103.6 140.455H75.145C74.9352 140.455 74.734 140.538 74.5857 140.687C74.4373 140.835 74.354 141.036 74.354 141.246C74.354 141.456 74.4373 141.657 74.5857 141.805C74.734 141.954 74.9352 142.037 75.145 142.037H103.6C103.81 142.037 104.011 141.954 104.159 141.805C104.308 141.657 104.391 141.456 104.391 141.246C104.391 141.036 104.308 140.835 104.159 140.687C104.011 140.538 103.81 140.455 103.6 140.455Z" fill="#000102"/>
<path d="M97.3 146.776H81.466C81.2562 146.776 81.055 146.859 80.9067 147.008C80.7583 147.156 80.675 147.357 80.675 147.567C80.675 147.777 80.7583 147.978 80.9067 148.126C81.055 148.275 81.2562 148.358 81.466 148.358H97.3C97.5098 148.358 97.711 148.275 97.8593 148.126C98.0076 147.978 98.091 147.777 98.091 147.567C98.091 147.357 98.0076 147.156 97.8593 147.008C97.711 146.859 97.5098 146.776 97.3 146.776Z" fill="#000102"/>
<path d="M40.509 37.1C39.382 35.882 38.304 35.798 37.205 36.645C36.106 37.492 14.364 53.9 13.237 54.838L13.083 54.971C12.7372 55.3175 12.543 55.787 12.543 56.2765C12.543 56.766 12.7372 57.2355 13.083 57.582C13.93 58.625 24.983 72.695 26.18 74.2C27.377 75.705 28.161 74.9 28.567 74.76C28.973 74.62 30.037 73.815 33.88 70.896C37.723 67.977 50.414 58.198 52.08 56.896C53.746 55.594 53.606 54.656 53.431 54.243C52.4097 52.5326 51.2706 50.8953 50.022 49.343C47.915 46.62 41.636 38.339 40.509 37.1ZM47.313 48.3C50.155 52.213 52.276 54.306 51.674 55.188C51.072 56.07 45.997 60.158 40.418 64.4C34.839 68.642 28.98 73.262 28.126 73.5C27.272 73.738 26.726 73.199 26.026 72.352C25.326 71.505 16.492 60.2 15.4 58.73C14.308 57.26 13.65 56.126 14 55.839C14.35 55.552 22.638 49.42 26.915 46.109C31.192 42.798 37.842 37.646 38.591 37.709C39.34 37.772 44.471 44.359 47.313 48.3Z" fill="#000102"/>
<path d="M14.966 57.302C14.924 57.246 14.798 56.763 14.917 56.693C16.9371 56.8197 18.9475 57.0698 20.937 57.442C20.9908 57.5569 21.0083 57.6855 20.987 57.8106C20.9657 57.9357 20.9068 58.0513 20.818 58.142C18.8483 58.0161 16.8916 57.7353 14.966 57.302Z" fill="#000102"/>
<path d="M18.067 59.815C18.3292 59.6307 18.6081 59.4713 18.9 59.339C19.5907 60.207 20.237 61.1053 20.839 62.034C20.7048 62.2798 20.5 62.4798 20.251 62.608C19.4685 61.7209 18.7392 60.7883 18.067 59.815Z" fill="#000102"/>
<path d="M27.216 72.177C27.16 71.953 28.245 66.843 28.322 66.787C28.399 66.731 29.099 66.885 29.162 67.06C28.8506 68.8594 28.4488 70.642 27.958 72.401C27.853 72.485 27.3 72.415 27.216 72.177Z" fill="#000102"/>
<path d="M43.946 59.101C43.946 59.101 43.946 58.492 44.093 58.401C45.0008 58.4323 45.9034 58.5519 46.788 58.758C46.76 58.9265 46.6902 59.0854 46.585 59.22C45.7036 59.261 44.8202 59.2211 43.946 59.101Z" fill="#000102"/>
<path d="M44.884 57.764C44.779 57.722 44.884 57.064 44.996 56.959C46.1158 56.952 47.2337 57.0504 48.335 57.253C48.321 57.4056 48.2512 57.5476 48.139 57.652C47.0588 57.7769 45.9703 57.8144 44.884 57.764Z" fill="#000102"/>
<path d="M42.399 55.552C42.28 55.552 42.294 54.81 42.399 54.74C42.504 54.67 50.393 54.81 50.498 54.936C50.5351 55.2451 50.5016 55.5587 50.4 55.853C50.302 55.846 42.7 55.65 42.399 55.552Z" fill="#000102"/>
<path d="M45.08 53.606C45.01 53.606 45.024 52.948 45.227 52.864C46.6894 52.9674 48.1395 53.2017 49.56 53.564C49.5965 53.638 49.6154 53.7195 49.6154 53.802C49.6154 53.8845 49.5965 53.9659 49.56 54.04C48.0597 53.9793 46.564 53.8344 45.08 53.606Z" fill="#000102"/>
<path d="M45.5 52.038C45.388 51.975 45.584 51.387 45.647 51.338C45.71 51.289 49.469 52.038 49.525 52.122C49.581 52.206 49.651 52.577 49.588 52.626C49.525 52.675 45.633 52.122 45.5 52.038Z" fill="#000102"/>
<path d="M45.451 50.659C45.4398 50.4369 45.4659 50.2145 45.528 50.001C46.373 50.0552 47.209 50.2055 48.02 50.449C48.09 50.547 48.251 50.848 48.125 50.925C47.2268 50.9312 46.3304 50.842 45.451 50.659Z" fill="#000102"/>
<path d="M45.171 49.448C45.171 49.448 45.115 48.888 45.171 48.832C45.7827 48.832 46.3919 48.9096 46.984 49.063C47.054 49.154 47.131 49.518 47.082 49.553C46.4432 49.5729 45.8038 49.5377 45.171 49.448Z" fill="#000102"/>
<path d="M35.945 46.242C35.896 46.046 37.737 39.2 37.933 39.2C38.129 39.2 38.773 39.284 38.773 39.473C38.773 39.662 36.841 46.473 36.736 46.592C36.5872 46.591 36.4402 46.5595 36.3041 46.4992C36.168 46.439 36.0458 46.3515 35.945 46.242Z" fill="#000102"/>
<path d="M35.637 47.88C32.613 46.536 28.917 47.551 26.628 49.455C23.52 52.038 22.526 56.322 23.828 59.388C25.13 62.454 27.713 64.988 30.954 65.184C34.195 65.38 37.856 63.133 39.354 61.53C40.383 60.2768 41.0187 58.7474 41.181 57.134C41.181 56.917 39.872 56.63 39.781 56.644C39.6546 56.9915 39.5609 57.3501 39.501 57.715C39.2818 58.6776 38.9007 59.596 38.374 60.431C37.5757 61.4007 36.5904 62.1997 35.4768 62.7806C34.3632 63.3615 33.144 63.7122 31.892 63.812C28.483 64.036 25.592 61.012 24.892 58.212C24.192 55.412 25.592 51.331 29.092 49.322C30.4697 48.5175 32.0929 48.2414 33.659 48.5454C35.2252 48.8493 36.6273 49.7125 37.604 50.974C38.0941 51.6015 38.3763 52.3662 38.4114 53.1617C38.4465 53.9571 38.2328 54.7437 37.8 55.412C37.359 55.755 36.519 55.412 36.323 55.23C36.127 55.048 34.223 52.486 34.069 52.43C33.915 52.374 32.872 53.13 32.872 53.13C32.196 53.0864 31.5203 53.2197 30.9115 53.5168C30.3026 53.8138 29.7817 54.2643 29.4 54.824C29.1271 55.1736 28.9258 55.5736 28.8077 56.0011C28.6895 56.4286 28.6568 56.8753 28.7114 57.3154C28.766 57.7556 28.9069 58.1806 29.126 58.5663C29.345 58.952 29.6379 59.2906 29.988 59.563C30.0457 59.6112 30.1065 59.6556 30.17 59.696C30.931 60.0839 31.7967 60.2164 32.6389 60.074C33.481 59.9315 34.255 59.5216 34.846 58.905C36.078 57.575 35.903 56.609 35.903 56.609C36.201 56.7609 36.5192 56.8694 36.848 56.931C37.415 57.036 38.948 56.931 39.543 54.789C40.138 52.647 38.647 49.217 35.637 47.88ZM34.062 55.3C34.2377 55.633 34.3207 56.0071 34.3022 56.3832C34.2838 56.7593 34.1645 57.1234 33.957 57.4376C33.7494 57.7518 33.4613 58.0044 33.1226 58.1689C32.7839 58.3335 32.4073 58.404 32.032 58.373C29.89 58.324 29.505 55.846 31.332 54.621C31.5511 54.485 31.795 54.3936 32.0495 54.352C32.304 54.3104 32.5642 54.3195 32.8152 54.3787C33.0662 54.4379 33.3031 54.546 33.5122 54.6969C33.7214 54.8478 33.8987 55.0385 34.034 55.258C34.0457 55.2703 34.0552 55.2845 34.062 55.3Z" fill="#000102"/>
<path d="M110.901 159.32H116.942" stroke="black" stroke-width="3" stroke-miterlimit="10" stroke-linecap="round"/>
<path d="M57.505 159.32H69.027" stroke="black" stroke-width="3" stroke-miterlimit="10" stroke-linecap="round"/>
<path d="M84 36.911C90.776 35.371 92.491 28.336 89.495 22.673C86.058 16.24 74.655 14.525 68.565 17.528C62.902 20.447 58.359 28.511 63.245 34.251C66.045 37.513 70.196 37.94 74.228 38.969C79.541 40.257 84.861 41.629 90.181 42.833C90.282 42.8588 90.3884 42.8544 90.4869 42.8203C90.5854 42.7861 90.6718 42.7238 90.7351 42.641C90.7985 42.5582 90.8362 42.4587 90.8435 42.3547C90.8507 42.2506 90.8273 42.1468 90.776 42.056C89.3085 39.5602 87.1295 37.5592 84.518 36.309C83.916 36.057 83.314 36.911 84 37.254C86.4734 38.3773 88.541 40.2348 89.922 42.574C90.09 42.315 90.349 42.056 90.524 41.804C85.547 40.684 80.661 39.487 75.768 38.199C73.451 37.597 71.225 37.086 68.908 36.484C63.679 35.084 61.789 30.478 62.902 25.508C64.533 17.185 75.166 16.499 81.802 18.298C89.95 20.531 94.15 33.565 83.776 35.882C83.7028 35.8929 83.6326 35.9189 83.57 35.9584C83.5075 35.9979 83.4538 36.0501 83.4125 36.1115C83.3712 36.173 83.3432 36.2423 83.3303 36.3152C83.3173 36.3881 83.3197 36.4629 83.3373 36.5348C83.3549 36.6067 83.3874 36.6741 83.4325 36.7328C83.4777 36.7914 83.5346 36.84 83.5996 36.8754C83.6646 36.9108 83.7363 36.9323 83.81 36.9384C83.8838 36.9445 83.9581 36.9352 84.028 36.911H84Z" fill="#010101"/>
<path d="M90.419 26.6C92.134 26.6 97.622 25.655 97.797 28.742C97.972 31.542 98.14 34.405 98.224 37.233C98.315 38.78 98.924 54.642 97.713 54.642C92.393 54.642 87.073 55.419 81.76 55.244C76.447 55.069 76.783 51.744 76.783 47.544C76.783 44.793 76.783 42.049 76.699 39.305C76.6836 39.1682 76.6184 39.0418 76.5157 38.95C76.4131 38.8582 76.2802 38.8075 76.1425 38.8075C76.0048 38.8075 75.8719 38.8582 75.7693 38.95C75.6666 39.0418 75.6014 39.1682 75.586 39.305C75.586 43.68 75.67 48.055 75.67 52.43C75.67 53.459 75.327 54.999 76.699 55.349C80.4051 56.222 84.2326 56.4587 88.018 56.049L94.367 55.531C95.48 55.447 97.279 56.049 98.315 55.531C99.855 54.831 99.253 52.101 99.253 50.813C99.344 45.668 99.253 40.607 99.085 35.462C99.001 32.886 99.687 28.259 98.315 25.942C97.37 24.395 91.707 25.34 90.251 25.424C89.733 25.599 89.733 26.712 90.419 26.628V26.6Z" fill="#010101"/>
<path d="M77.987 40.516C78.239 42.917 77.896 46.263 78.687 48.58C78.939 49.28 79.03 49.609 79.884 49.609H91.119C92.519 49.609 94.724 50.204 95.837 49.091C96.607 48.321 96.18 45.829 96.18 44.975C96.264 41.37 96.264 37.688 96.264 34.083C96.264 32.795 96.439 29.624 95.41 28.483C94.549 27.622 91.91 28.224 90.951 28.224C90.8142 28.2394 90.6878 28.3046 90.596 28.4073C90.5043 28.5099 90.4535 28.6428 90.4535 28.7805C90.4535 28.9182 90.5043 29.0511 90.596 29.1537C90.6878 29.2564 90.8142 29.3216 90.951 29.337C93.268 29.337 94.808 28.637 95.151 32.508C95.2559 34.0598 95.2722 35.6163 95.2 37.17C95.2 38.374 95.802 48.405 94.346 48.58C91.175 48.923 87.829 48.58 84.651 48.58C83.37 48.58 79.751 49.28 79.506 46.865C79.338 44.716 79.163 42.665 78.904 40.516C78.904 40.3916 78.8546 40.2723 78.7666 40.1844C78.6787 40.0964 78.5594 40.047 78.435 40.047C78.3106 40.047 78.1913 40.0964 78.1034 40.1844C78.0154 40.2723 77.966 40.3916 77.966 40.516H77.987Z" fill="#010101"/>
<path d="M86.303 52.78C86.8155 52.7102 87.3329 52.6821 87.85 52.696C88.55 52.78 88.55 51.667 87.85 51.576C87.2188 51.5207 86.583 51.5513 85.96 51.667C85.358 51.835 85.617 52.864 86.303 52.78Z" fill="#010101"/>
<path d="M68.978 24.563C68.6382 24.5384 68.2977 24.5994 67.9875 24.7405C67.6774 24.8816 67.4076 25.0982 67.2029 25.3705C66.9981 25.6428 66.865 25.9621 66.8155 26.2992C66.7661 26.6363 66.802 26.9804 66.92 27.3C67.1537 27.8599 67.5811 28.3171 68.124 28.588C68.4934 28.7146 68.8099 28.9612 69.023 29.2885C69.2361 29.6158 69.3336 30.0049 69.3 30.394C69.3 31.339 67.158 30.051 67.074 29.883C66.556 29.365 65.87 30.135 66.297 30.653C67.074 31.423 69.727 32.711 70.329 30.996C70.514 30.1532 70.3924 29.2721 69.986 28.511C69.747 28.1373 69.3819 27.8616 68.957 27.734C68.6216 27.6172 68.3257 27.4086 68.103 27.132C67.9977 26.9744 67.9397 26.7901 67.9357 26.6006C67.9317 26.4111 67.982 26.2245 68.0805 26.0626C68.1791 25.9008 68.3219 25.7705 68.4921 25.6871C68.6622 25.6037 68.8527 25.5707 69.041 25.592C69.643 25.676 69.643 24.563 68.957 24.563H68.978Z" fill="#010101"/>
<path d="M72.583 31.08C72.4658 29.2122 72.522 27.3375 72.751 25.48C73.01 24.36 73.78 26.593 73.955 26.936C74.466 27.965 74.809 29.078 75.243 30.198C75.2772 30.3077 75.3456 30.4035 75.4382 30.4716C75.5307 30.5396 75.6426 30.5763 75.7575 30.5763C75.8724 30.5763 75.9843 30.5396 76.0768 30.4716C76.1694 30.4035 76.2378 30.3077 76.272 30.198C76.8002 28.1997 77.5125 26.2547 78.4 24.388H77.455C77.882 25.417 77.798 26.789 77.973 27.993C78.057 29.022 78.141 30.135 78.225 31.164C78.316 31.864 79.345 31.864 79.345 31.164C79.254 29.708 79.086 28.364 79.002 26.88C78.9938 25.8301 78.819 24.7881 78.484 23.793C78.4334 23.7135 78.3636 23.648 78.281 23.6027C78.1984 23.5573 78.1057 23.5336 78.0115 23.5336C77.9173 23.5336 77.8246 23.5573 77.742 23.6027C77.6594 23.648 77.5896 23.7135 77.539 23.793C76.6574 25.7692 75.9136 27.8041 75.313 29.883H76.342C75.824 28.483 75.313 27.223 74.711 25.935C74.368 25.165 73.941 23.534 72.828 23.702C70.854 23.877 71.54 29.883 71.54 31.08C71.456 31.78 72.569 31.78 72.569 31.08H72.583Z" fill="#010101"/>
<path d="M84.504 24.99C83.475 23.534 81.585 24.29 81.004 25.76C80.8834 26.1869 80.901 26.6411 81.0544 27.0573C81.2079 27.4735 81.4892 27.8305 81.858 28.077C82.376 28.511 82.971 28.777 83.489 29.197C84.518 30.135 82.201 31.255 81.431 30.135C81.004 29.54 80.143 30.135 80.486 30.653C81.347 31.85 83.657 32.109 84.518 30.737C84.7273 30.4337 84.8311 30.07 84.8134 29.7019C84.7957 29.3339 84.6575 28.9818 84.42 28.7C84.0792 28.2919 83.6722 27.944 83.216 27.671C83.048 27.587 82.789 27.412 82.614 27.328C81.158 26.383 82.873 24.528 83.559 25.529C83.986 26.124 84.959 25.613 84.504 25.011V24.99Z" fill="#010101"/>
</svg>
