<svg width="175" height="175" viewBox="0 0 175 175" fill="none" xmlns="http://www.w3.org/2000/svg">
<path d="M54.096 115.36H68.096" stroke="black" stroke-width="3" stroke-miterlimit="10" stroke-linecap="round"/>
<path d="M91.427 161.539C118.083 161.539 139.692 139.93 139.692 113.274C139.692 86.618 118.083 65.009 91.427 65.009C64.771 65.009 43.162 86.618 43.162 113.274C43.162 139.93 64.771 161.539 91.427 161.539Z" fill="#FDCF01"/>
<path d="M119 67.963C108.57 54.663 96.243 55.034 89.019 55.741C81.627 56.441 68.481 59.437 61.803 74.536C60.774 76.874 57.603 88.718 63 96.537C67.452 102.998 71.197 103.439 76.363 112.021C78.862 116.144 79.863 118.643 80.269 121.415C80.269 121.415 86.03 123.914 85.974 124.999C85.918 126.084 79.618 125.65 78.694 126.469C77.665 127.337 77.938 141.624 78.862 142.926C79.786 144.228 88.256 150.801 92.708 150.528C97.16 150.255 105.532 144.718 105.532 144.718C105.532 144.718 107.863 129.185 106.561 126.791C105.259 124.397 107.541 117.124 108.465 114.247C111.72 103.873 119.273 103.047 123.074 94.528C127.008 85.785 124.075 74.48 119 67.963ZM100.226 140.7C98.546 141.463 96.642 141.463 94.906 141.841C92.624 142.331 90.286 142.492 87.955 142.821C86.919 142.926 85.855 143.304 84.749 142.821C84.6261 142.782 84.514 142.715 84.4216 142.625C84.3292 142.536 84.2592 142.425 84.217 142.304C84.1748 142.182 84.1617 142.052 84.1787 141.924C84.1957 141.796 84.2424 141.674 84.315 141.568C84.798 140.588 86.268 140.805 86.919 140.644C88.06 140.371 89.201 140.371 90.286 140.105C91.7749 139.8 93.28 139.58 94.794 139.447C96.32 139.23 97.783 138.53 99.358 138.691C99.197 138.691 98.98 138.635 98.868 138.635C99.0327 138.638 99.1968 138.657 99.358 138.691H99.519C99.4087 138.7 99.2979 138.68 99.197 138.635C99.575 138.691 100.338 138.53 100.716 139.125C101.5 140.21 100.555 140.539 100.226 140.7ZM102.837 135.373C100.555 136.248 98.056 136.297 95.662 136.773C92.568 137.375 89.474 137.697 86.38 138.075C84.98 138.243 83.58 138.677 82.082 138.243C81.487 138.075 81.109 137.697 81.599 137.046C82.299 136.066 84.259 136.178 85.099 136.017C86.618 135.688 88.144 135.632 89.663 135.317C91.6547 134.918 93.6667 134.628 95.69 134.449C97.755 134.176 99.708 133.357 101.829 133.469C101.451 133.469 100.632 133.413 101.612 133.469C102.158 133.469 103.131 133.308 103.621 133.903C104.517 134.778 103.327 135.212 102.837 135.373ZM102.837 130.543C100.555 131.411 98.056 131.467 95.662 131.943C92.568 132.538 89.474 132.86 86.38 133.245C84.98 133.406 83.58 133.84 82.082 133.406C81.487 133.245 81.109 132.86 81.599 132.209C82.299 131.236 84.259 131.341 85.099 131.18C86.618 130.851 88.144 130.802 89.663 130.48C91.6553 130.085 93.6671 129.795 95.69 129.612C97.755 129.339 99.708 128.527 101.829 128.632C101.61 128.646 101.391 128.627 101.178 128.576C101.396 128.58 101.613 128.599 101.829 128.632H101.668C102.207 128.632 103.187 128.471 103.677 129.066C104.517 129.941 103.327 130.382 102.837 130.543Z" fill="white"/>
<path d="M80.563 118.699C80.073 116.361 78.771 114.247 77.525 112.343C76.1939 110.08 74.6466 107.952 72.905 105.987C71.33 104.307 69.643 102.837 68.005 101.262C66.4006 99.7582 64.9898 98.0605 63.805 96.208C62.5837 94.2836 61.7359 92.1463 61.306 89.908C60.8534 87.6203 60.6725 85.2871 60.767 82.957C60.8663 80.6239 61.3049 78.3177 62.069 76.111L62.342 75.299C62.4452 75.034 62.5717 74.7787 62.72 74.536L63.532 72.961C63.7 72.688 63.805 72.422 63.917 72.205L64.351 71.442L65.275 69.923C66.4559 68.0187 67.8204 66.2345 69.349 64.596L69.944 64.001L70.595 63.455C71.029 63.077 71.463 62.699 71.897 62.37C72.331 62.041 72.821 61.775 73.297 61.446C73.773 61.117 74.333 60.956 74.816 60.746C76.216 60.151 77.616 59.5 79.107 58.898C80.5652 58.2921 82.0768 57.8234 83.622 57.498C85.463 57.113 87.255 56.735 89.159 56.518C91.6516 56.2922 94.1577 56.2547 96.656 56.406C101.369 56.5379 105.954 57.967 109.907 60.536C113.057 62.636 115.507 65.261 117.95 68.033C119.439 69.6965 120.623 71.6085 121.45 73.682C122.33 75.7388 122.969 77.8904 123.354 80.094C124.204 84.0405 124.13 88.13 123.137 92.043C122.501 94.316 121.389 96.4277 119.875 98.238C118.356 100.03 116.508 101.549 114.716 103.285C113.001 104.848 111.486 106.619 110.208 108.556C109.602 109.553 109.057 110.587 108.577 111.65C108.331 112.175 108.132 112.721 107.982 113.281C107.765 113.827 107.597 114.366 107.436 114.912C106.761 117.091 106.2 119.304 105.756 121.541C105.516 122.693 105.387 123.865 105.371 125.041C105.376 125.713 105.507 126.377 105.756 127.001L105.861 127.218C105.861 127.267 105.861 127.267 105.917 127.323C105.973 127.379 105.973 127.54 105.973 127.652C105.973 127.764 106.022 128.142 106.078 128.408C106.115 129.458 106.097 130.51 106.022 131.558C105.973 132.65 105.917 133.735 105.805 134.764C105.644 136.941 105.427 139.111 105.154 141.288C105.098 141.827 104.993 142.422 104.937 142.968L104.832 143.836L104.776 144.165V144.2L103.964 144.69L102.823 145.39C102.06 145.824 101.248 146.258 100.485 146.692C98.91 147.56 97.279 148.323 95.704 149.03C94.7188 149.453 93.676 149.727 92.61 149.842C91.5577 149.82 90.5211 149.582 89.565 149.142C88.5312 148.713 87.5319 148.205 86.576 147.623C85.603 147.028 84.679 146.426 83.776 145.775C83.013 145.236 82.306 144.746 81.599 144.2C81.277 143.934 80.899 143.661 80.57 143.388C80.409 143.227 80.241 143.115 80.08 142.954L79.863 142.737L79.702 142.576L79.646 142.52C79.646 142.464 79.59 142.408 79.59 142.352C79.541 142.191 79.541 142.03 79.485 141.869C79.429 141.54 79.373 141.169 79.317 140.833C79.212 140.133 79.156 139.37 79.1 138.663C78.9949 137.197 78.9949 135.726 79.1 134.26C79.212 133.014 79.268 131.712 79.373 130.459C79.429 129.808 79.485 129.213 79.541 128.611C79.59 128.289 79.59 128.016 79.646 127.743L79.702 127.582C79.7313 127.586 79.7612 127.583 79.7892 127.573C79.8171 127.563 79.8424 127.547 79.863 127.526C80.136 127.47 80.409 127.47 80.675 127.414L82.362 127.253C83.503 127.148 84.644 127.092 85.785 126.98C88.067 126.821 90.349 126.714 92.631 126.658C94.696 126.602 96.754 126.763 98.77 126.658H100.1C100.338 126.656 100.574 126.618 100.8 126.546C100.849 126.546 100.905 126.497 100.961 126.497C101.017 126.497 101.017 126.441 101.066 126.441C101.115 126.441 101.234 126.385 101.29 126.28C101.324 126.244 101.347 126.199 101.355 126.151C101.364 126.102 101.358 126.052 101.339 126.007C101.326 125.94 101.288 125.88 101.234 125.839C101.178 125.79 101.178 125.734 101.122 125.734C101.029 125.643 100.919 125.569 100.8 125.517C100.688 125.461 100.527 125.405 100.415 125.356C99.9544 125.236 99.4868 125.145 99.015 125.083C96.7951 124.846 94.5606 124.773 92.33 124.866C90.104 124.922 87.878 125.083 85.701 125.188L82.285 125.356C81.739 125.356 81.144 125.405 80.542 125.461C80.2497 125.471 79.9591 125.508 79.674 125.573C79.5983 125.566 79.5223 125.583 79.457 125.622C79.345 125.622 79.24 125.678 79.128 125.678C78.9249 125.758 78.7263 125.849 78.533 125.951C78.3898 126.1 78.263 126.265 78.155 126.441C78.099 126.658 77.987 126.819 77.938 127.036C77.882 127.365 77.826 127.582 77.77 127.855C77.665 128.394 77.665 128.94 77.609 129.43C77.5373 130.478 77.5186 131.53 77.553 132.58C77.609 134.316 77.665 136.08 77.721 137.844C77.77 138.719 77.826 139.636 77.882 140.511C77.938 140.945 77.987 141.379 78.043 141.869C78.099 142.086 78.099 142.303 78.155 142.569C78.2079 142.876 78.3171 143.17 78.477 143.437L78.806 143.815L79.128 144.144C79.3144 144.339 79.5157 144.519 79.73 144.683C80.1213 145.056 80.5376 145.402 80.976 145.719C82.7964 147.159 84.7434 148.431 86.793 149.52C87.8296 150.081 88.9201 150.536 90.048 150.878L90.916 151.095L91.84 151.256C92.4743 151.322 93.1146 151.303 93.744 151.2C96.0466 150.697 98.2618 149.855 100.317 148.701C101.346 148.162 102.326 147.616 103.355 147.077L104.825 146.202L105.588 145.768L106.022 145.502L106.617 145.117L106.946 142.947C107.324 140.609 107.646 138.327 107.919 135.947C108.238 133.588 108.367 131.207 108.304 128.828C108.277 128.226 108.204 127.627 108.087 127.036C108.049 126.851 107.993 126.671 107.919 126.497L107.814 126.168L107.758 126.056C107.742 125.974 107.703 125.899 107.646 125.839L107.597 125.573C107.498 124.611 107.534 123.641 107.702 122.689C108.065 120.639 108.533 118.609 109.102 116.606C109.614 114.324 110.456 112.129 111.601 110.089C111.713 109.837 111.859 109.601 112.035 109.389L112.525 108.689C112.855 108.212 113.218 107.759 113.61 107.331C114.373 106.463 115.185 105.651 116.053 104.783C117.355 103.474 118.853 102.284 120.295 100.926C121.741 99.5756 122.902 97.9501 123.711 96.145C124.67 94.082 125.375 91.9101 125.811 89.677C126.301 87.178 125.972 84.63 125.811 82.131C125.368 77.3758 123.678 72.8217 120.911 68.929C120.582 68.439 120.211 67.949 119.875 67.459L118.734 66.101C118.356 65.667 118.034 65.177 117.593 64.743L116.403 63.441C116.186 63.224 116.018 63.007 115.801 62.79L115.15 62.195L113.848 60.998C113.358 60.62 112.868 60.298 112.378 59.969C112.112 59.801 111.888 59.64 111.622 59.479L110.859 59.045C106.652 56.6438 101.992 55.1443 97.174 54.642C94.768 54.4159 92.3452 54.4346 89.943 54.698C87.5615 54.921 85.2048 55.3567 82.901 56C80.496 56.6408 78.1533 57.4959 75.901 58.555L75.033 58.933L74.214 59.367C73.675 59.696 73.129 59.969 72.583 60.347C72.037 60.725 71.554 61.047 71.008 61.376L69.545 62.573C69.0841 62.9593 68.6491 63.3755 68.243 63.819C67.8001 64.2477 67.3817 64.7011 66.99 65.177L65.849 66.577C65.471 67.067 65.149 67.557 64.82 68.047C64.12 69.02 63.567 70.147 62.916 71.141C62.6114 71.6778 62.338 72.2318 62.097 72.8C61.824 73.339 61.551 73.829 61.278 74.431C60.8283 75.5739 60.4473 76.7427 60.137 77.931C59.8645 79.1122 59.6658 80.3091 59.542 81.515C59.2419 83.9366 59.2962 86.389 59.703 88.795C60.0698 91.1646 60.8217 93.4582 61.929 95.585C62.258 96.075 62.531 96.67 62.853 97.16C63.175 97.65 63.511 98.14 63.889 98.63C64.5919 99.5823 65.3541 100.489 66.171 101.346C67.802 103.082 69.538 104.601 71.071 106.288C72.5988 107.957 74.0025 109.735 75.271 111.608C76.3548 113.165 77.3166 114.803 78.148 116.508C78.526 117.32 78.911 118.139 79.233 119.007C79.779 120.407 80.101 121.506 80.591 121.45C80.808 121.394 80.976 120.96 80.976 120.414C80.8054 119.846 80.6767 119.265 80.591 118.678C80.402 117.831 80.724 119.7 80.563 118.699Z" fill="black" stroke="black" stroke-width="2" stroke-miterlimit="10"/>
<path d="M19.985 147.924C19.724 146.945 19.2824 146.024 18.683 145.208C18.1151 144.238 17.454 143.326 16.709 142.485C16.009 141.785 15.309 141.141 14.609 140.469C13.9277 139.824 13.3283 139.097 12.824 138.306C12.3034 137.482 11.9403 136.568 11.753 135.611C11.5574 134.632 11.4799 133.633 11.522 132.636C11.5638 131.637 11.7501 130.649 12.075 129.703L12.194 129.353C12.2406 129.242 12.2944 129.135 12.355 129.031L12.705 128.331C12.7644 128.224 12.8181 128.114 12.866 128.002L13.055 127.68L13.447 127.029C13.9562 126.216 14.5397 125.452 15.19 124.747L15.449 124.495L15.729 124.264C15.911 124.096 16.1 123.935 16.282 123.795L16.891 123.403C17.1025 123.291 17.3198 123.191 17.542 123.102C18.144 122.843 18.746 122.563 19.376 122.311C19.9993 122.047 20.6462 121.843 21.308 121.702C22.099 121.541 22.862 121.38 23.674 121.289C24.7423 121.192 25.8163 121.176 26.887 121.24C28.9032 121.296 30.8651 121.906 32.557 123.004C33.8425 123.912 34.9987 124.991 35.994 126.21C36.6357 126.923 37.1475 127.742 37.506 128.632C37.8828 129.512 38.1553 130.433 38.318 131.376C38.6839 133.063 38.6528 134.813 38.227 136.486C37.9545 137.46 37.4772 138.364 36.827 139.139C36.176 139.902 35.385 140.539 34.615 141.295C33.8841 141.968 33.2377 142.727 32.69 143.556C32.4262 143.98 32.1923 144.422 31.99 144.879C31.882 145.104 31.7952 145.338 31.731 145.579C31.64 145.817 31.57 146.048 31.5 146.279C31.2192 147.212 30.9855 148.158 30.8 149.114C30.7003 149.605 30.6464 150.104 30.639 150.605C30.6391 150.89 30.6938 151.173 30.8 151.438L30.849 151.529C30.849 151.529 30.849 151.529 30.849 151.578C30.849 151.627 30.849 151.669 30.849 151.718C30.849 151.767 30.849 151.928 30.891 152.04C30.9156 152.49 30.9156 152.941 30.891 153.391C30.891 153.853 30.842 154.322 30.8 154.791C30.73 155.722 30.632 156.653 30.52 157.591C30.52 157.829 30.45 158.081 30.429 158.291L30.38 158.662V158.802V158.851L30.03 159.061L29.54 159.362C29.218 159.551 28.84 159.733 28.539 159.922C27.839 160.293 27.139 160.622 26.495 160.923C26.0735 161.102 25.6276 161.218 25.172 161.266C24.7244 161.268 24.2812 161.177 23.87 161C23.426 160.818 22.9976 160.6 22.589 160.349C22.169 160.097 21.777 159.838 21.385 159.558C20.993 159.278 20.755 159.117 20.454 158.858C20.314 158.739 20.153 158.627 20.013 158.508C19.873 158.389 19.873 158.396 19.803 158.326L19.712 158.228L19.642 158.158C19.642 158.158 19.642 158.109 19.642 158.088C19.642 158.067 19.642 157.948 19.593 157.878C19.544 157.808 19.551 157.577 19.523 157.437C19.481 157.136 19.453 156.807 19.432 156.506C19.383 155.879 19.383 155.25 19.432 154.623C19.481 154.091 19.502 153.531 19.551 152.999C19.551 152.719 19.593 152.467 19.621 152.208C19.621 152.068 19.621 151.956 19.663 151.837V151.767C19.6855 151.776 19.7105 151.776 19.733 151.767C19.845 151.767 19.964 151.767 20.076 151.718L20.776 151.648C21.266 151.599 21.756 151.578 22.239 151.529C23.219 151.459 24.192 151.417 25.172 151.396C26.152 151.375 26.936 151.438 27.797 151.396H28.357C28.4591 151.393 28.5604 151.377 28.658 151.347H28.728C28.728 151.347 28.728 151.347 28.77 151.347C28.812 151.347 28.84 151.347 28.868 151.277C28.8786 151.26 28.8842 151.241 28.8842 151.221C28.8842 151.201 28.8786 151.182 28.868 151.165C28.868 151.165 28.868 151.116 28.819 151.095C28.77 151.074 28.819 151.046 28.777 151.046C28.7373 151.006 28.6896 150.975 28.637 150.955L28.476 150.885C28.238 150.815 27.986 150.794 27.867 150.766C26.9183 150.669 25.964 150.639 25.011 150.675C24.059 150.675 23.107 150.766 22.211 150.815L20.748 150.885C20.51 150.885 20.258 150.885 19.999 150.927C19.8742 150.933 19.7502 150.95 19.628 150.976C19.5984 150.966 19.5666 150.966 19.537 150.976C19.488 150.976 19.446 150.976 19.397 150.976C19.3108 151.008 19.2266 151.045 19.145 151.088C19.0827 151.153 19.0265 151.223 18.977 151.298C18.977 151.396 18.907 151.459 18.886 151.557C18.865 151.655 18.837 151.788 18.816 151.907C18.7788 152.139 18.7555 152.372 18.746 152.607C18.7213 153.055 18.7213 153.503 18.746 153.951C18.746 154.7 18.788 155.463 18.816 156.212C18.816 156.583 18.858 156.975 18.886 157.346C18.886 157.535 18.928 157.717 18.956 157.927C18.956 158.025 18.956 158.116 18.998 158.228C19.0232 158.361 19.0706 158.489 19.138 158.606L19.278 158.767L19.418 158.907C19.4974 158.991 19.5841 159.069 19.677 159.138C19.8432 159.298 20.0211 159.445 20.209 159.579C20.9868 160.194 21.8185 160.737 22.694 161.203C23.1387 161.446 23.608 161.641 24.094 161.784L24.472 161.882L24.864 161.952C25.1335 161.987 25.4065 161.987 25.676 161.952C26.6572 161.739 27.6011 161.381 28.476 160.888L29.778 160.188L30.408 159.817L30.73 159.628L30.919 159.516L31.171 159.348L31.311 158.424C31.472 157.423 31.612 156.443 31.731 155.421C31.8664 154.412 31.9202 153.394 31.892 152.376C31.8831 152.12 31.8526 151.864 31.801 151.613C31.801 151.543 31.801 151.473 31.731 151.382L31.682 151.242V151.193C31.6772 151.158 31.6598 151.125 31.633 151.102V150.983C31.5911 150.572 31.6076 150.157 31.682 149.751C31.836 148.873 32.037 148.004 32.284 147.147C32.5015 146.166 32.8624 145.223 33.355 144.347C33.3988 144.237 33.4603 144.136 33.537 144.046L33.747 143.738C33.8911 143.537 34.0453 143.343 34.209 143.157C34.538 142.786 34.909 142.457 35.259 142.065C35.819 141.512 36.47 141.001 37.072 140.42C37.6904 139.812 38.1765 139.083 38.5 138.278C38.9137 137.396 39.2193 136.468 39.41 135.513C39.5465 134.442 39.5465 133.357 39.41 132.286C39.2164 130.252 38.4923 128.304 37.31 126.637C37.17 126.427 37.009 126.217 36.869 126.007L36.379 125.426C36.218 125.244 36.078 125.034 35.889 124.845L35.378 124.292C35.287 124.194 35.217 124.103 35.126 124.012L34.846 123.753L34.286 123.242C34.076 123.081 33.866 122.941 33.656 122.801C33.446 122.661 33.453 122.661 33.334 122.591L33.005 122.409C31.206 121.382 29.2131 120.741 27.153 120.526C26.1243 120.421 25.0877 120.421 24.059 120.526C23.0238 120.623 21.9998 120.815 21 121.1C19.9702 121.372 18.9674 121.738 18.004 122.192L17.633 122.353L17.283 122.542C17.052 122.675 16.814 122.794 16.583 122.955C16.352 123.116 16.142 123.256 15.883 123.396L15.253 123.907C15.0568 124.074 14.8721 124.254 14.7 124.446C14.5079 124.628 14.3279 124.822 14.161 125.027L13.678 125.629C13.51 125.839 13.37 126.049 13.23 126.259C12.929 126.679 12.698 127.141 12.418 127.582C12.2874 127.808 12.1706 128.042 12.068 128.282C11.956 128.513 11.837 128.723 11.725 128.982C11.5302 129.475 11.3665 129.98 11.235 130.494C11.1147 130.999 11.0282 131.511 10.976 132.027C10.8523 133.063 10.8759 134.112 11.046 135.142C11.2045 136.155 11.526 137.136 11.998 138.047C12.138 138.257 12.257 138.516 12.397 138.747C12.537 138.978 12.677 139.16 12.838 139.37C13.1376 139.777 13.4626 140.165 13.811 140.532C14.511 141.274 15.253 141.932 15.911 142.632C16.5648 143.343 17.166 144.101 17.71 144.9C18.1727 145.568 18.5845 146.27 18.942 147C19.103 147.343 19.264 147.7 19.404 148.064C19.642 148.673 19.775 149.135 19.985 149.114C20.083 149.114 20.153 148.904 20.153 148.673C20.0789 148.428 20.0228 148.177 19.985 147.924C20.055 148.344 19.915 147.553 19.985 147.924Z" fill="black"/>
<path d="M19.985 147.924C19.724 146.945 19.2824 146.024 18.683 145.208C18.1151 144.238 17.454 143.326 16.709 142.485C16.009 141.785 15.309 141.141 14.609 140.469C13.9277 139.824 13.3283 139.097 12.824 138.306C12.3034 137.482 11.9403 136.568 11.753 135.611C11.5574 134.632 11.4799 133.633 11.522 132.636C11.5638 131.637 11.7501 130.649 12.075 129.703L12.194 129.353C12.2406 129.242 12.2944 129.135 12.355 129.031L12.705 128.331C12.7644 128.224 12.8181 128.114 12.866 128.002L13.055 127.68L13.447 127.029C13.9562 126.216 14.5397 125.452 15.19 124.747L15.449 124.495L15.729 124.264C15.911 124.096 16.1 123.935 16.282 123.795L16.891 123.403C17.1025 123.291 17.3198 123.191 17.542 123.102C18.144 122.843 18.746 122.563 19.376 122.311C19.9993 122.047 20.6462 121.843 21.308 121.702C22.099 121.541 22.862 121.38 23.674 121.289C24.7423 121.192 25.8163 121.176 26.887 121.24C28.9032 121.296 30.8651 121.906 32.557 123.004C33.8425 123.912 34.9987 124.991 35.994 126.21C36.6357 126.923 37.1475 127.742 37.506 128.632C37.8828 129.512 38.1553 130.433 38.318 131.376C38.6839 133.063 38.6528 134.813 38.227 136.486C37.9545 137.46 37.4772 138.364 36.827 139.139C36.176 139.902 35.385 140.539 34.615 141.295C33.8841 141.968 33.2377 142.727 32.69 143.556C32.4262 143.98 32.1923 144.422 31.99 144.879C31.882 145.104 31.7952 145.338 31.731 145.579C31.64 145.817 31.57 146.048 31.5 146.279C31.2192 147.212 30.9855 148.158 30.8 149.114C30.7003 149.605 30.6464 150.104 30.639 150.605C30.6391 150.89 30.6938 151.173 30.8 151.438L30.849 151.529C30.849 151.529 30.849 151.529 30.849 151.578C30.849 151.627 30.849 151.669 30.849 151.718C30.849 151.767 30.849 151.928 30.891 152.04C30.9156 152.49 30.9156 152.941 30.891 153.391C30.891 153.853 30.842 154.322 30.8 154.791C30.73 155.722 30.632 156.653 30.52 157.591C30.52 157.829 30.45 158.081 30.429 158.291L30.38 158.662V158.802V158.851L30.03 159.061L29.54 159.362C29.218 159.551 28.84 159.733 28.539 159.922C27.839 160.293 27.139 160.622 26.495 160.923C26.0735 161.102 25.6276 161.218 25.172 161.266C24.7244 161.268 24.2812 161.177 23.87 161C23.426 160.818 22.9976 160.6 22.589 160.349C22.169 160.097 21.777 159.838 21.385 159.558C20.993 159.278 20.755 159.117 20.454 158.858C20.314 158.739 20.153 158.627 20.013 158.508C19.873 158.389 19.873 158.396 19.803 158.326L19.712 158.228L19.642 158.158C19.642 158.158 19.642 158.109 19.642 158.088C19.642 158.067 19.642 157.948 19.593 157.878C19.544 157.808 19.551 157.577 19.523 157.437C19.481 157.136 19.453 156.807 19.432 156.506C19.383 155.879 19.383 155.25 19.432 154.623C19.481 154.091 19.502 153.531 19.551 152.999C19.551 152.719 19.593 152.467 19.621 152.208C19.621 152.068 19.621 151.956 19.663 151.837V151.767C19.6855 151.776 19.7105 151.776 19.733 151.767C19.845 151.767 19.964 151.767 20.076 151.718L20.776 151.648C21.266 151.599 21.756 151.578 22.239 151.529C23.219 151.459 24.192 151.417 25.172 151.396C26.152 151.375 26.936 151.438 27.797 151.396H28.357C28.4591 151.393 28.5604 151.377 28.658 151.347H28.728C28.728 151.347 28.728 151.347 28.77 151.347C28.812 151.347 28.84 151.347 28.868 151.277C28.8786 151.26 28.8842 151.241 28.8842 151.221C28.8842 151.201 28.8786 151.182 28.868 151.165C28.868 151.165 28.868 151.116 28.819 151.095C28.77 151.074 28.819 151.046 28.777 151.046C28.7373 151.006 28.6896 150.975 28.637 150.955L28.476 150.885C28.238 150.815 27.986 150.794 27.867 150.766C26.9183 150.669 25.964 150.639 25.011 150.675C24.059 150.675 23.107 150.766 22.211 150.815L20.748 150.885C20.51 150.885 20.258 150.885 19.999 150.927C19.8742 150.933 19.7502 150.95 19.628 150.976C19.5984 150.966 19.5666 150.966 19.537 150.976C19.488 150.976 19.446 150.976 19.397 150.976C19.3108 151.008 19.2266 151.045 19.145 151.088C19.0827 151.153 19.0265 151.223 18.977 151.298C18.977 151.396 18.907 151.459 18.886 151.557C18.865 151.655 18.837 151.788 18.816 151.907C18.7788 152.139 18.7555 152.372 18.746 152.607C18.7213 153.055 18.7213 153.503 18.746 153.951C18.746 154.7 18.788 155.463 18.816 156.212C18.816 156.583 18.858 156.975 18.886 157.346C18.886 157.535 18.928 157.717 18.956 157.927C18.956 158.025 18.956 158.116 18.998 158.228C19.0232 158.361 19.0706 158.489 19.138 158.606L19.278 158.767L19.418 158.907C19.4974 158.991 19.5841 159.069 19.677 159.138C19.8432 159.298 20.0211 159.445 20.209 159.579C20.9868 160.194 21.8185 160.737 22.694 161.203C23.1387 161.446 23.608 161.641 24.094 161.784L24.472 161.882L24.864 161.952C25.1335 161.987 25.4065 161.987 25.676 161.952C26.6572 161.739 27.6011 161.381 28.476 160.888L29.778 160.188L30.408 159.817L30.73 159.628L30.919 159.516L31.171 159.348L31.311 158.424C31.472 157.423 31.612 156.443 31.731 155.421C31.8664 154.412 31.9202 153.394 31.892 152.376C31.8831 152.12 31.8526 151.864 31.801 151.613C31.801 151.543 31.801 151.473 31.731 151.382L31.682 151.242V151.193C31.6772 151.158 31.6598 151.125 31.633 151.102V150.983C31.5911 150.572 31.6076 150.157 31.682 149.751C31.836 148.873 32.037 148.004 32.284 147.147C32.5015 146.166 32.8624 145.223 33.355 144.347C33.3988 144.237 33.4603 144.136 33.537 144.046L33.747 143.738C33.8911 143.537 34.0453 143.343 34.209 143.157C34.538 142.786 34.909 142.457 35.259 142.065C35.819 141.512 36.47 141.001 37.072 140.42C37.6904 139.812 38.1765 139.083 38.5 138.278C38.9137 137.396 39.2193 136.468 39.41 135.513C39.5465 134.442 39.5465 133.357 39.41 132.286C39.2164 130.252 38.4923 128.304 37.31 126.637C37.17 126.427 37.009 126.217 36.869 126.007L36.379 125.426C36.218 125.244 36.078 125.034 35.889 124.845L35.378 124.292C35.287 124.194 35.217 124.103 35.126 124.012L34.846 123.753L34.286 123.242C34.076 123.081 33.866 122.941 33.656 122.801C33.446 122.661 33.453 122.661 33.334 122.591L33.005 122.409C31.206 121.382 29.2131 120.741 27.153 120.526C26.1243 120.421 25.0877 120.421 24.059 120.526C23.0238 120.623 21.9998 120.815 21 121.1C19.9702 121.372 18.9674 121.738 18.004 122.192L17.633 122.353L17.283 122.542C17.052 122.675 16.814 122.794 16.583 122.955C16.352 123.116 16.142 123.256 15.883 123.396L15.253 123.907C15.0568 124.074 14.8721 124.254 14.7 124.446C14.5079 124.628 14.3279 124.822 14.161 125.027L13.678 125.629C13.51 125.839 13.37 126.049 13.23 126.259C12.929 126.679 12.698 127.141 12.418 127.582C12.2874 127.808 12.1706 128.042 12.068 128.282C11.956 128.513 11.837 128.723 11.725 128.982C11.5302 129.475 11.3665 129.98 11.235 130.494C11.1147 130.999 11.0282 131.511 10.976 132.027C10.8523 133.063 10.8759 134.112 11.046 135.142C11.2045 136.155 11.526 137.136 11.998 138.047C12.138 138.257 12.257 138.516 12.397 138.747C12.537 138.978 12.677 139.16 12.838 139.37C13.1376 139.777 13.4626 140.165 13.811 140.532C14.511 141.274 15.253 141.932 15.911 142.632C16.5648 143.343 17.166 144.101 17.71 144.9C18.1727 145.568 18.5845 146.27 18.942 147C19.103 147.343 19.264 147.7 19.404 148.064C19.642 148.673 19.775 149.135 19.985 149.114C20.083 149.114 20.153 148.904 20.153 148.673C20.0789 148.428 20.0228 148.177 19.985 147.924C19.915 147.553 20.055 148.344 19.985 147.924Z" stroke="black" stroke-width="2" stroke-miterlimit="10"/>
<path d="M151.242 147.553C150.978 146.573 150.537 145.65 149.94 144.83C149.367 143.864 148.704 142.955 147.959 142.114C147.259 141.414 146.559 140.763 145.859 140.091C145.174 139.448 144.572 138.721 144.067 137.928C143.545 137.104 143.182 136.19 142.996 135.233C142.803 134.254 142.726 133.255 142.765 132.258C142.809 131.261 142.998 130.275 143.325 129.332L143.437 128.982C143.485 128.868 143.541 128.758 143.605 128.653L143.948 127.953C144.018 127.841 144.067 127.722 144.116 127.631L144.298 127.302L144.697 126.651C145.202 125.837 145.786 125.075 146.44 124.376L146.692 124.117L146.972 123.886C147.161 123.725 147.343 123.564 147.532 123.424L148.134 123.025C148.344 122.913 148.575 122.815 148.785 122.724C149.387 122.472 149.996 122.192 150.619 121.933C151.243 121.673 151.89 121.471 152.551 121.331C153.342 121.17 154.105 121.002 154.924 120.911C155.99 120.814 157.062 120.798 158.13 120.862C160.147 120.917 162.11 121.53 163.8 122.633C165.087 123.539 166.243 124.618 167.237 125.839C167.879 126.549 168.39 127.367 168.749 128.254C169.124 129.135 169.396 130.055 169.561 130.998C169.93 132.687 169.899 134.44 169.47 136.115C169.197 137.087 168.72 137.989 168.07 138.761C167.369 139.518 166.631 140.24 165.858 140.924C164.73 141.908 163.834 143.13 163.233 144.501C163.131 144.727 163.046 144.961 162.981 145.201C162.89 145.43 162.813 145.663 162.75 145.901C162.464 146.832 162.231 147.779 162.05 148.736C161.944 149.224 161.888 149.721 161.882 150.22C161.888 150.508 161.945 150.792 162.05 151.06L162.092 151.151C162.092 151.151 162.092 151.151 162.092 151.2C162.092 151.249 162.092 151.291 162.092 151.333C162.092 151.375 162.092 151.543 162.141 151.662C162.165 152.112 162.165 152.563 162.141 153.013C162.141 153.475 162.099 153.937 162.05 154.413C161.98 155.344 161.889 156.275 161.77 157.213C161.77 157.444 161.7 157.703 161.679 157.913L161.63 158.284V158.424V158.473L161.28 158.676L160.79 158.984L159.796 159.537C159.096 159.908 158.396 160.237 157.745 160.538C157.324 160.72 156.878 160.837 156.422 160.888C155.972 160.875 155.53 160.773 155.12 160.587C154.68 160.401 154.254 160.183 153.846 159.936C153.426 159.677 153.027 159.425 152.635 159.145C152.243 158.865 152.005 158.704 151.704 158.445C151.564 158.326 151.403 158.207 151.263 158.095L151.053 157.906L150.962 157.815L150.892 157.745C150.892 157.745 150.892 157.696 150.892 157.675C150.892 157.654 150.892 157.535 150.85 157.465C150.808 157.395 150.801 157.164 150.78 157.024C150.731 156.716 150.71 156.394 150.682 156.093C150.64 155.466 150.64 154.837 150.682 154.21C150.731 153.678 150.752 153.118 150.801 152.579C150.801 152.306 150.85 152.047 150.871 151.795C150.871 151.655 150.871 151.536 150.92 151.417V151.347C150.943 151.356 150.967 151.356 150.99 151.347C151.102 151.347 151.221 151.347 151.34 151.305L152.04 151.235C152.523 151.186 153.013 151.165 153.503 151.116C154.476 151.046 155.456 150.997 156.429 150.976C157.402 150.955 158.193 151.025 159.054 150.976H159.614C159.716 150.978 159.818 150.961 159.915 150.927H159.985C159.985 150.927 159.985 150.927 160.034 150.927C160.083 150.927 160.104 150.927 160.125 150.857C160.137 150.839 160.143 150.819 160.143 150.798C160.143 150.776 160.137 150.756 160.125 150.738C160.125 150.738 160.125 150.696 160.083 150.668C160.041 150.64 160.083 150.626 160.034 150.626C159.993 150.586 159.945 150.553 159.894 150.528L159.733 150.458C159.535 150.407 159.334 150.37 159.131 150.346C158.18 150.243 157.223 150.21 156.268 150.248C155.316 150.248 154.364 150.346 153.468 150.388L152.005 150.458C151.774 150.458 151.515 150.458 151.263 150.507C151.138 150.509 151.013 150.525 150.892 150.556C150.86 150.546 150.826 150.546 150.794 150.556C150.752 150.556 150.703 150.556 150.654 150.556C150.605 150.556 150.472 150.626 150.402 150.675C150.34 150.738 150.286 150.808 150.241 150.885C150.241 150.976 150.171 151.046 150.143 151.137C150.115 151.228 150.101 151.368 150.073 151.487C150.031 151.718 150.031 151.949 150.003 152.187C150.003 152.628 149.961 153.076 150.003 153.538C150.003 154.28 150.052 155.05 150.073 155.792C150.073 156.163 150.122 156.562 150.143 156.933C150.143 157.115 150.192 157.304 150.213 157.514C150.213 157.605 150.213 157.696 150.262 157.815C150.282 157.946 150.327 158.072 150.395 158.186L150.535 158.347L150.675 158.487C150.773 158.578 150.843 158.648 150.934 158.718C151.098 158.88 151.276 159.028 151.466 159.159C152.242 159.779 153.074 160.325 153.951 160.79C154.397 161.029 154.866 161.224 155.351 161.371L155.722 161.462L156.114 161.532C156.386 161.564 156.661 161.564 156.933 161.532C157.913 161.313 158.857 160.952 159.733 160.461L161.035 159.761L161.665 159.39L161.987 159.208L162.176 159.089L162.4 158.9L162.54 157.969C162.708 156.968 162.848 155.995 162.96 154.973C163.093 153.954 163.14 152.926 163.1 151.9C163.091 151.641 163.061 151.384 163.009 151.13C162.996 151.05 162.972 150.973 162.939 150.899L162.89 150.759V150.717C162.885 150.681 162.871 150.647 162.848 150.619V150.507C162.809 150.096 162.826 149.682 162.897 149.275C163.037 148.414 163.268 147.532 163.499 146.671C163.72 145.691 164.081 144.748 164.57 143.871C164.621 143.765 164.682 143.664 164.752 143.57L164.962 143.269C165.107 143.066 165.263 142.872 165.431 142.688C165.753 142.317 166.131 141.988 166.474 141.596C167.034 141.036 167.685 140.525 168.287 139.944C168.909 139.37 169.407 138.674 169.75 137.9C170.166 137.019 170.471 136.091 170.66 135.135C170.8 134.062 170.8 132.974 170.66 131.901C170.468 129.866 169.744 127.918 168.56 126.252C168.42 126.049 168.259 125.839 168.119 125.629L167.629 125.048C167.476 124.846 167.312 124.652 167.139 124.467L166.6 123.9C166.509 123.809 166.439 123.718 166.348 123.62L166.068 123.368L165.508 122.857C165.298 122.689 165.095 122.556 164.885 122.416L164.556 122.206L164.234 122.017C162.432 120.991 160.437 120.35 158.375 120.134C157.346 120.029 156.31 120.029 155.281 120.134C154.251 120.225 153.232 120.41 152.236 120.687C151.207 120.97 150.204 121.342 149.24 121.8L148.869 121.961L148.519 122.15C148.288 122.29 148.057 122.409 147.819 122.57C147.581 122.731 147.371 122.871 147.119 123.011L146.496 123.522C146.298 123.687 146.111 123.864 145.936 124.054C145.746 124.236 145.568 124.43 145.404 124.635L144.914 125.244C144.753 125.454 144.613 125.657 144.473 125.867C144.172 126.287 143.934 126.749 143.661 127.197C143.527 127.421 143.41 127.655 143.311 127.897C143.192 128.128 143.08 128.338 142.961 128.597C142.766 129.09 142.602 129.595 142.471 130.109C142.353 130.614 142.269 131.126 142.219 131.642C142.088 132.678 142.112 133.728 142.289 134.757C142.443 135.771 142.765 136.753 143.241 137.662C143.381 137.872 143.493 138.124 143.633 138.362C143.773 138.6 143.913 138.782 144.074 138.992C144.376 139.4 144.703 139.788 145.054 140.154C145.754 140.896 146.496 141.554 147.154 142.254C147.807 142.965 148.404 143.725 148.939 144.529C149.403 145.196 149.815 145.899 150.171 146.629C150.332 146.979 150.5 147.329 150.64 147.7C150.871 148.302 151.011 148.771 151.221 148.743C151.312 148.743 151.382 148.533 151.382 148.302C151.309 148.059 151.255 147.811 151.221 147.56C151.2 147.182 151.312 147.973 151.242 147.553Z" fill="black" stroke="black" stroke-width="2" stroke-miterlimit="10"/>
<path d="M77.847 34.937C78.281 36.673 78.988 38.36 79.478 40.096C79.968 41.832 80.402 43.519 80.878 45.262C81.256 46.564 81.529 47.866 81.907 49.168C82.124 49.931 82.397 51.611 82.887 52.269C83.209 52.703 83.265 52.374 83.265 51.884C83.1405 50.6476 82.8872 49.4277 82.509 48.244C81.851 45.584 81.2 42.924 80.409 40.264C79.758 38.255 79.212 36.134 78.4 34.181C78.239 33.796 77.798 32.781 77.637 33.481C77.6215 34.0532 77.7141 34.6232 77.91 35.161L77.798 34.783L77.854 34.944C78.232 36.456 77.7 34.3 77.847 34.937Z" fill="black" stroke="black" stroke-width="2" stroke-miterlimit="10"/>
<path d="M104.251 33.74C103.922 35.483 103.866 37.24 103.649 38.906C103.432 40.572 103.11 42.273 102.949 44.009C102.788 45.311 102.571 46.564 102.41 47.866C102.298 48.629 101.92 50.204 102.137 50.96C102.298 51.45 102.459 51.233 102.627 50.743C102.996 49.6076 103.231 48.433 103.327 47.243C103.761 44.632 104.195 42.028 104.468 39.417C104.776 37.3851 104.975 35.3382 105.063 33.285C105.063 32.851 105.119 31.815 104.685 32.361C104.449 32.8737 104.302 33.4229 104.251 33.985L104.3 33.663L104.251 33.768C103.978 35.21 104.412 33.089 104.251 33.74Z" fill="black" stroke="black" stroke-width="2" stroke-miterlimit="10"/>
<path d="M128.744 44.1C127.715 45.563 126.896 47.194 125.944 48.769C124.992 50.344 123.984 51.758 123.011 53.277C122.311 54.418 121.485 55.503 120.785 56.644C120.351 57.344 119.259 58.604 119.098 59.444C118.993 59.99 119.259 59.822 119.644 59.444C120.494 58.5195 121.258 57.519 121.926 56.455C123.501 54.173 125.076 51.947 126.483 49.56C127.575 47.712 128.821 45.92 129.745 44.016C129.906 43.638 130.396 42.616 129.801 42.931C129.366 43.3201 128.999 43.779 128.716 44.289L128.933 44.016L128.765 44.128C127.876 45.367 129.129 43.519 128.744 44.1Z" fill="black" stroke="black" stroke-width="2" stroke-miterlimit="10"/>
<path d="M51.506 47.705C52.696 49.063 54.11 50.253 55.363 51.562C56.616 52.871 57.75 54.222 58.996 55.524C59.92 56.504 60.795 57.533 61.712 58.569C62.258 59.164 63.238 60.522 63.994 60.9C64.484 61.173 64.379 60.795 64.162 60.361C63.4899 59.2939 62.7062 58.3013 61.824 57.4C60.032 55.3 58.184 53.2 56.224 51.261C54.7454 49.6774 53.1846 48.1727 51.548 46.753C51.226 46.48 50.358 45.773 50.519 46.48C50.624 46.914 51.282 47.509 51.604 47.838L51.394 47.6L51.506 47.712C52.535 48.951 51.1 47.215 51.506 47.705Z" fill="black" stroke="black" stroke-width="2" stroke-miterlimit="10"/>
<path d="M149.24 58.632C147.56 59.885 146.041 61.348 144.298 62.657C142.555 63.966 140.931 65.1 139.251 66.346C137.998 67.27 136.64 68.138 135.338 69.006C134.575 69.552 132.839 70.476 132.293 71.239C131.915 71.722 132.293 71.673 132.839 71.456C134.147 70.798 135.4 70.0349 136.584 69.174C139.3 67.382 141.967 65.59 144.515 63.574C146.54 62.0707 148.482 60.4583 150.332 58.744C150.71 58.359 151.634 57.442 150.822 57.659C150.202 57.947 149.633 58.3322 149.135 58.8L149.464 58.527L149.24 58.632C149.842 58.142 147.777 59.717 149.24 58.632Z" fill="black"/>
<path d="M149.24 58.632C147.56 59.885 146.041 61.348 144.298 62.657C142.555 63.966 140.931 65.1 139.251 66.346C137.998 67.27 136.64 68.138 135.338 69.006C134.575 69.552 132.839 70.476 132.293 71.239C131.915 71.722 132.293 71.673 132.839 71.456C134.147 70.798 135.4 70.0349 136.584 69.174C139.3 67.382 141.967 65.59 144.515 63.574C146.54 62.0707 148.482 60.4583 150.332 58.744C150.71 58.359 151.634 57.442 150.822 57.659C150.202 57.947 149.633 58.3322 149.135 58.8L149.464 58.527L149.24 58.632C147.777 59.717 149.842 58.142 149.24 58.632Z" stroke="black" stroke-width="2" stroke-miterlimit="10"/>
<path d="M35.588 68.726C37.324 69.538 39.172 70.084 40.908 70.896C42.644 71.708 44.331 72.527 46.074 73.339C47.376 73.941 48.622 74.648 49.875 75.299C50.631 75.677 52.157 76.657 52.969 76.762C53.564 76.818 53.347 76.545 52.913 76.223C51.8383 75.4422 50.6922 74.7649 49.49 74.2C46.886 72.8 44.331 71.484 41.615 70.287C39.5497 69.2853 37.408 68.4496 35.21 67.788C34.769 67.676 33.635 67.354 34.118 67.949C34.6179 68.314 35.167 68.6062 35.749 68.817L35.427 68.656L35.588 68.712C37.1 69.433 34.937 68.397 35.588 68.726Z" fill="black" stroke="black" stroke-width="2" stroke-miterlimit="10"/>
<path d="M114.947 81.977C115.003 81.599 113.589 77.413 113.316 77.252C113.043 77.091 107.184 77.525 106.967 77.413C106.031 76.5768 105.193 75.6375 104.468 74.613C104.412 74.284 105.224 68.53 105.119 68.201C105.014 67.872 100.877 65.975 100.611 66.031C100.345 66.087 96.481 70.483 96.208 70.644C94.9718 70.7114 93.7319 70.6386 92.512 70.427C92.246 70.322 88.767 65.527 88.494 65.429C86.8627 65.7934 85.2777 66.3406 83.769 67.06C83.552 67.333 83.986 73.304 83.93 73.416C83.0478 74.3046 82.1128 75.1392 81.13 75.915C80.913 76.02 75.04 75.103 74.718 75.264C74.396 75.425 72.492 79.555 72.541 79.772C72.59 79.989 77 83.972 77.161 84.168C77.2526 85.4042 77.1796 86.6471 76.944 87.864C76.783 88.081 72.044 91.448 71.946 91.882C71.848 92.316 73.199 96.285 73.577 96.614C73.955 96.943 79.772 96.285 79.933 96.502L82.432 99.302C82.593 99.463 81.613 105.441 81.781 105.707C83.2214 106.555 84.7291 107.283 86.289 107.884C86.562 107.884 90.419 103.432 90.685 103.264C91.9398 103.174 93.201 103.247 94.437 103.481C94.654 103.649 98.126 108.381 98.455 108.479C98.784 108.577 102.963 107.079 103.18 106.848C103.397 106.617 103.075 100.821 103.019 100.492C102.963 100.163 105.462 98.161 105.819 98C106.176 97.839 111.902 98.812 112.224 98.651C112.546 98.49 114.506 94.521 114.401 94.143C114.296 93.765 109.893 90.069 109.781 89.74C109.72 88.4875 109.793 87.2321 109.998 85.995C110.117 85.729 114.898 82.362 114.947 81.977ZM96.586 97.377C95.4194 97.7189 94.2163 97.921 93.002 97.979C90.6126 98.0329 88.261 97.3756 86.2458 96.0907C84.2305 94.8057 82.6425 92.951 81.6832 90.762C80.7239 88.5729 80.4367 86.1482 80.8579 83.7955C81.2791 81.4429 82.3898 79.2685 84.049 77.5482C85.7081 75.8279 87.841 74.6394 90.1769 74.1334C92.5128 73.6275 94.9463 73.8269 97.1686 74.7065C99.3909 75.586 101.302 77.106 102.659 79.0735C104.016 81.0409 104.757 83.3672 104.79 85.757C104.851 88.3126 104.087 90.8199 102.612 92.9077C101.137 94.9955 99.0291 96.5528 96.6 97.349L96.586 97.377Z" fill="#F7E38D" stroke="black" stroke-width="2" stroke-miterlimit="10"/>
<path d="M81.326 99.743C81.0826 101.132 80.919 102.535 80.836 103.943V104.3C80.8273 104.465 80.8463 104.631 80.892 104.79C80.997 104.895 81.109 104.951 81.214 105.056C81.319 105.161 81.431 105.168 81.487 105.224L81.921 105.441L82.845 105.924C83.44 106.253 84.098 106.526 84.693 106.799L85.127 106.96L85.239 107.016C85.288 107.016 85.344 107.065 85.4 107.065C85.5009 107.11 85.6117 107.13 85.722 107.121C85.8199 107.08 85.9117 107.026 85.995 106.96C86.107 106.904 86.156 106.799 86.212 106.743L86.541 106.414L87.787 105.056L89.04 103.754L89.691 103.103L90.013 102.774L90.181 102.613L90.23 102.557H91C91.434 102.613 91.924 102.613 92.358 102.669L93.058 102.725C93.2223 102.729 93.3861 102.746 93.548 102.774C94.143 103.537 94.745 104.244 95.34 105.007C95.935 105.77 96.586 106.582 97.293 107.338C97.461 107.506 97.678 107.772 97.993 107.667L98.21 107.611L98.371 107.555L98.644 107.506L99.729 107.177C100.429 106.96 101.129 106.687 101.829 106.477C102.017 106.419 102.199 106.347 102.375 106.26L102.48 106.204C102.536 106.204 102.592 106.155 102.697 106.099C102.802 106.043 102.97 105.931 102.97 105.77C102.97 105.609 103.026 105.448 103.082 105.336V104.524C103.082 103.761 103.082 103.054 103.026 102.298L102.865 100.198L102.809 99.652V99.33C102.809 99.274 102.97 99.113 103.082 99.001C103.194 98.8614 103.32 98.7346 103.46 98.623C103.944 98.1252 104.471 97.6708 105.035 97.265C105.094 97.2063 105.17 97.1672 105.252 97.153C105.274 97.1345 105.3 97.1207 105.328 97.1123C105.355 97.1038 105.384 97.101 105.413 97.104C105.578 97.0983 105.743 97.1148 105.903 97.153C106.253 97.2018 106.599 97.2743 106.939 97.37C107.887 97.5928 108.848 97.7565 109.816 97.86L111.335 98.028C111.54 98.0507 111.747 98.0117 111.93 97.916C112.018 97.8584 112.094 97.7848 112.154 97.699C112.203 97.643 112.259 97.538 112.315 97.482C112.462 97.2777 112.588 97.0597 112.693 96.831C113.299 95.7998 113.792 94.7061 114.163 93.569C114.204 93.4281 114.22 93.2814 114.212 93.135V93.03C114.212 92.974 114.163 92.974 114.163 92.918C114.163 92.862 114.107 92.757 114.051 92.701C113.991 92.5837 113.895 92.4882 113.778 92.428L113.561 92.211L112.7 91.378C112.148 90.824 111.569 90.2984 110.964 89.803L110.145 89.103C109.921 88.932 109.721 88.7319 109.55 88.508V87.5C109.541 87.1374 109.559 86.7747 109.606 86.415C109.617 86.0514 109.652 85.6889 109.711 85.33C109.767 85.162 109.711 85.162 109.879 85.057L110.313 84.728L112.105 83.426C112.595 83.104 113.029 82.726 113.505 82.397C113.75 82.2304 113.984 82.048 114.205 81.851C114.317 81.746 114.422 81.69 114.534 81.578C114.722 81.4265 114.855 81.2175 114.912 80.983C114.912 80.871 114.863 80.766 114.863 80.605C114.863 80.444 114.807 80.437 114.807 80.332L114.695 79.898C114.629 79.6172 114.538 79.343 114.422 79.079C114.261 78.54 114.044 77.994 113.827 77.448L113.505 76.748C113.457 76.602 113.422 76.4521 113.4 76.3C113.308 76.1268 113.201 75.9627 113.078 75.81C112.973 75.7699 112.861 75.7532 112.749 75.761C112.644 75.761 112.532 75.705 112.476 75.761H111.174L109.438 75.81L107.695 75.866H106.666L106.554 75.761L106.4 75.6C105.957 75.1583 105.541 74.6909 105.154 74.2C104.94 73.9789 104.738 73.7452 104.552 73.5L104.391 73.388V73.332L104.447 72.898C104.552 71.652 104.72 70.399 104.825 69.097L104.937 67.956C104.937 67.739 104.986 67.634 104.986 67.361C104.994 67.2146 104.977 67.0679 104.937 66.927L104.608 66.598C104.391 66.437 104.23 66.381 104.069 66.276L103.579 66.003L102.543 65.457C102.221 65.296 101.892 65.135 101.514 64.967L100.968 64.75L100.695 64.645C100.591 64.599 100.483 64.5615 100.373 64.533C100.212 64.533 100.044 64.484 99.939 64.484C99.7905 64.5393 99.6582 64.6307 99.554 64.75L99.12 65.184C98.854 65.457 98.581 65.73 98.364 66.003L96.894 67.634L96.194 68.446L95.816 68.824L95.655 69.041L95.543 69.153H94.843C94.5339 69.1621 94.2247 69.1433 93.919 69.097L92.995 69.041L92.561 68.992C92.4515 68.9891 92.343 68.9702 92.239 68.936C92.2316 68.936 92.2244 68.9345 92.2176 68.9317C92.2108 68.9289 92.2046 68.9248 92.1994 68.9196C92.1942 68.9144 92.1901 68.9082 92.1873 68.9014C92.1844 68.8946 92.183 68.8874 92.183 68.88L92.078 68.775L91.805 68.446L91.315 67.851L90.3 66.605L89.327 65.303L88.837 64.652L88.564 64.323C88.4934 64.2649 88.4381 64.1904 88.403 64.106L88.186 63.889C88.074 63.833 87.913 63.889 87.801 63.889C87.7249 63.8873 87.6498 63.9067 87.584 63.945L87.479 64.001L86.989 64.106C86.66 64.218 86.338 64.274 86.009 64.379C85.358 64.596 84.707 64.813 84.112 65.03L83.622 65.247C83.51 65.303 83.454 65.303 83.349 65.359C83.244 65.415 83.076 65.52 83.02 65.632C82.964 65.744 82.915 65.898 82.859 66.01L82.803 66.227V66.927C82.803 68.285 82.915 69.643 82.971 71.001C82.9634 71.2354 82.9798 71.4699 83.02 71.701V72.191C82.2253 72.9573 81.3911 73.6816 80.521 74.361H80.255L79.821 74.305L78.897 74.2C78.295 74.144 77.7 74.088 77.049 73.983C76.398 73.878 75.649 73.815 74.949 73.766H74.298C74.2223 73.7588 74.1463 73.776 74.081 73.815L73.92 73.983C73.808 74.088 73.703 74.2 73.703 74.305C73.4998 74.6194 73.3174 74.9468 73.157 75.285C72.835 75.936 72.506 76.531 72.177 77.182C72.0132 77.4999 71.8683 77.8271 71.743 78.162C71.638 78.435 71.526 78.757 71.799 78.981C71.934 79.1504 72.0789 79.3117 72.233 79.464C72.884 80.115 73.591 80.773 74.333 81.424L75.362 82.348L75.908 82.831L76.181 83.055L76.286 83.16L76.342 83.216C76.3723 83.4132 76.3723 83.6138 76.342 83.811C76.3534 84.0666 76.3346 84.3227 76.286 84.574C76.237 85.113 76.181 85.603 76.125 86.149C76.125 86.254 76.069 86.31 76.069 86.422C76.069 86.534 76.069 86.471 76.02 86.471H75.964L75.803 86.583L75.474 86.8L74.823 87.234C74.389 87.563 73.955 87.829 73.521 88.158C73.087 88.487 72.646 88.809 72.268 89.138C72.0442 89.2874 71.8437 89.469 71.673 89.677C71.561 89.789 71.456 89.845 71.344 89.95L71.183 90.111C71.0989 90.192 71.026 90.2838 70.966 90.384L70.854 90.545C70.8575 90.5749 70.855 90.6051 70.8466 90.634C70.8382 90.6628 70.824 90.6897 70.805 90.713V91.091C70.854 91.252 70.854 91.364 70.91 91.525C70.966 91.798 71.071 92.071 71.127 92.288C71.288 92.778 71.505 93.317 71.673 93.807C71.841 94.297 72.107 94.787 72.373 95.277C72.4533 95.4545 72.562 95.6176 72.695 95.76C72.7947 95.8219 72.9072 95.8602 73.024 95.872C73.1159 95.8858 73.2071 95.9044 73.297 95.928H74.109C75.3818 95.9007 76.6515 95.7908 77.91 95.599C78.022 95.599 78.4 95.543 78.729 95.494C78.89 95.438 79.051 95.438 79.163 95.382C79.2437 95.3406 79.317 95.2862 79.38 95.221C79.324 94.675 78.239 94.836 77.854 94.836C76.496 94.836 75.194 95.004 73.836 95.053H73.185C73.185 95.053 73.08 94.892 73.024 94.787C72.968 94.682 72.856 94.514 72.807 94.353C72.534 93.751 72.261 93.1 72.044 92.505C71.9315 92.2037 71.8403 91.895 71.771 91.581C71.722 91.252 71.61 90.93 71.666 90.881C71.722 90.832 71.722 90.825 71.771 90.769L71.939 90.608C72.0528 90.4871 72.1796 90.3791 72.317 90.286L73.08 89.684C74.109 88.872 75.18 88.165 76.23 87.297L76.391 87.185L76.608 86.968C76.6756 86.8534 76.7119 86.723 76.713 86.59L76.769 86.317L76.825 85.827L76.881 84.854L76.937 83.874V83.111C76.9258 82.9787 76.8877 82.85 76.825 82.733C76.608 82.46 76.496 82.404 76.391 82.243L76.013 81.865L75.25 81.165L73.731 79.765L72.968 79.009L72.373 78.407L72.639 77.707L73.08 76.734C73.402 76.076 73.675 75.425 73.997 74.83C74.221 74.452 74.165 74.452 74.382 74.452C74.7273 74.4592 75.0714 74.4943 75.411 74.557L79.702 75.047L79.975 75.103H80.353C80.521 75.103 80.626 74.991 80.738 74.942C80.8191 74.8984 80.8924 74.8416 80.955 74.774C81.228 74.557 81.494 74.284 81.767 74.074L82.586 73.374L82.964 72.996L83.181 72.779C83.2839 72.6823 83.3754 72.5743 83.454 72.457C83.454 72.345 83.503 72.24 83.503 72.128V71.855C83.454 70.455 83.454 68.978 83.398 67.564V66.227L83.503 66.171C84.105 65.898 84.812 65.681 85.463 65.415C85.841 65.303 86.219 65.142 86.604 65.03C86.765 64.974 86.982 64.925 87.143 64.869L87.311 64.813H87.416L87.633 65.142L88.067 65.681L88.886 66.773C89.425 67.473 89.971 68.236 90.566 68.873L90.895 69.251C90.9617 69.3154 91.0162 69.3912 91.056 69.475C91.112 69.58 91.273 69.636 91.385 69.741C91.497 69.846 91.707 69.797 91.763 69.853L92.036 69.909L92.526 69.958L93.45 70.014L94.423 70.07H95.186C95.3197 70.0668 95.4501 70.0281 95.564 69.958C95.837 69.741 95.893 69.636 96.054 69.524L96.432 69.146L97.132 68.383L98.532 66.864C98.91 66.43 99.344 66.052 99.729 65.618L99.778 65.562L99.834 65.618C100.051 65.723 100.324 65.835 100.597 65.94C101.087 66.213 101.626 66.43 102.116 66.703C102.389 66.808 102.606 66.976 102.879 67.081L103.579 67.41C103.592 67.41 103.604 67.4152 103.614 67.4243C103.623 67.4335 103.628 67.446 103.628 67.459V67.844C103.621 68.1707 103.586 68.4962 103.523 68.817C103.467 69.475 103.362 70.126 103.25 70.777C103.145 71.533 103.089 72.24 103.033 73.003V73.276C103.028 73.4228 103.047 73.5694 103.089 73.71C103.198 73.9188 103.324 74.1178 103.467 74.305C103.74 74.578 103.957 74.907 104.23 75.173C104.447 75.4594 104.681 75.7329 104.93 75.992L105.308 76.37L105.525 76.587C105.57 76.6472 105.626 76.6975 105.691 76.7349C105.756 76.7722 105.828 76.7957 105.903 76.804C105.959 76.804 106.071 76.86 106.12 76.86H107.1L108.136 76.804L110.236 76.699L111.272 76.643H112.084C112.676 77.9941 113.131 79.4012 113.442 80.843C113.442 80.899 113.442 80.843 113.386 80.899C113.33 80.955 113.169 81.06 113.064 81.172L112.364 81.718C111.874 82.096 111.44 82.418 111.006 82.803L109.319 84.161L108.885 84.539C108.781 84.6367 108.689 84.7473 108.612 84.868C108.56 84.9888 108.525 85.1159 108.507 85.246C108.445 85.6047 108.407 85.9672 108.395 86.331C108.326 87.0709 108.309 87.8148 108.346 88.557C108.323 88.7098 108.36 88.8658 108.451 88.991C108.507 89.047 108.507 89.103 108.563 89.159L108.668 89.264L109.046 89.642L109.809 90.405L111.384 91.875L112.203 92.575L112.581 92.953L112.742 93.114L112.798 93.17V93.275L112.742 93.387L112.581 93.877C112.457 94.2101 112.312 94.5351 112.147 94.85C111.871 95.4999 111.563 96.1354 111.223 96.754L111.111 96.971L111.062 97.083C111.062 97.132 111.062 97.132 111.006 97.132C110.95 97.132 110.894 97.188 110.845 97.188C110.479 97.1747 110.115 97.1396 109.753 97.083L107.527 96.754L105.301 96.425H104.972C104.825 96.4163 104.678 96.4353 104.538 96.481C104.489 96.537 104.377 96.537 104.321 96.593C104.265 96.649 104.216 96.649 104.216 96.698L103.999 96.866C103.697 97.0838 103.408 97.3175 103.131 97.566C102.844 97.8051 102.571 98.0599 102.312 98.329C102.174 98.4628 102.048 98.608 101.934 98.763L101.822 98.875C101.773 98.924 101.773 98.98 101.717 99.092C101.661 99.204 101.661 99.253 101.605 99.309V99.526L101.773 101.696C101.822 102.396 101.878 103.166 101.878 103.873V105.553C101.85 105.582 101.813 105.602 101.773 105.609C101.661 105.665 101.444 105.714 101.339 105.77L100.849 105.931L99.813 106.316C99.162 106.533 98.455 106.806 97.804 106.967C97.587 107.023 97.699 107.023 97.37 106.694L96.67 105.882L95.312 104.195L94.556 103.215L94.171 102.732C94.01 102.564 93.954 102.459 93.681 102.186C93.576 102.13 93.464 102.13 93.359 102.081L93.086 102.025L92.596 101.969L91.672 101.913L90.748 101.857H89.992C89.88 101.857 89.719 101.913 89.607 101.913C89.495 101.913 89.446 102.025 89.39 102.081L89.229 102.186L88.956 102.403L88.466 102.893L87.542 103.873L85.645 105.826L85.428 106.043L85.316 106.155L85.267 106.204H85.211L85.155 106.155C84.777 105.987 84.343 105.77 83.958 105.609C83.146 105.231 82.334 104.846 81.571 104.468C81.5219 104.425 81.4678 104.387 81.41 104.356C81.41 104.356 81.354 104.356 81.354 104.307V103.817L81.41 103.054C81.4553 102.544 81.5277 102.037 81.627 101.535C81.7348 100.963 81.7887 100.381 81.788 99.799C81.844 98.819 81.844 98.056 81.571 98.056L81.515 98.112C81.4846 98.1422 81.4649 98.1815 81.459 98.224C81.3982 98.3468 81.3444 98.473 81.298 98.602C81.45 98.964 81.4698 99.3679 81.354 99.743C81.2 100.233 81.431 99.141 81.326 99.743Z" fill="black" stroke="black" stroke-miterlimit="10"/>
<path d="M24.311 139.482C25.6757 139.482 26.782 138.376 26.782 137.011C26.782 135.646 25.6757 134.54 24.311 134.54C22.9463 134.54 21.84 135.646 21.84 137.011C21.84 138.376 22.9463 139.482 24.311 139.482Z" stroke="black" stroke-width="2" stroke-miterlimit="10"/>
<path d="M16.261 128.219C16.261 128.219 15.911 134.869 18.613 134.099C21.315 133.329 20.965 128.219 20.965 128.219" stroke="black" stroke-width="2" stroke-miterlimit="10"/>
<path d="M28.413 128.219C28.413 128.219 28.056 134.869 30.765 134.099C33.474 133.329 33.11 128.219 33.11 128.219" stroke="black" stroke-width="2" stroke-miterlimit="10"/>
<path d="M158.235 140.511C159.6 140.511 160.706 139.405 160.706 138.04C160.706 136.675 159.6 135.569 158.235 135.569C156.87 135.569 155.764 136.675 155.764 138.04C155.764 139.405 156.87 140.511 158.235 140.511Z" stroke="black" stroke-width="2" stroke-miterlimit="10"/>
<path d="M150.185 129.248C150.185 129.248 149.828 135.898 152.537 135.128C155.246 134.358 154.889 129.248 154.889 129.248" stroke="black" stroke-width="2" stroke-miterlimit="10"/>
<path d="M162.337 129.248C162.337 129.248 161.98 135.898 164.682 135.128C167.384 134.358 167.034 129.248 167.034 129.248" stroke="black" stroke-width="2" stroke-miterlimit="10"/>
</svg>
