<svg width="175" height="175" viewBox="0 0 175 175" fill="none" xmlns="http://www.w3.org/2000/svg">
<path d="M88.333 154.231C114.173 154.231 135.121 133.283 135.121 107.443C135.121 81.6027 114.173 60.655 88.333 60.655C62.4927 60.655 41.545 81.6027 41.545 107.443C41.545 133.283 62.4927 154.231 88.333 154.231Z" fill="#FDCF01"/>
<path d="M95.508 143.941C86.1115 143.94 76.966 140.908 69.4295 135.296C61.893 129.684 56.3676 121.791 53.6738 112.789C50.9799 103.786 51.2613 94.1556 54.4761 85.3262C57.6909 76.4967 63.6677 68.9396 71.519 63.777C64.2474 66.5789 57.7909 71.1527 52.7355 77.0831C47.6802 83.0135 44.1861 90.1126 42.5705 97.736C40.955 105.359 41.2691 113.266 43.4844 120.737C45.6997 128.208 49.746 135.008 55.256 140.518C60.7659 146.029 67.565 150.076 75.0359 152.292C82.5069 154.508 90.413 154.823 98.0366 153.209C105.66 151.594 112.76 148.101 118.691 143.046C124.622 137.991 129.196 131.535 131.999 124.264C128.025 130.312 122.609 135.277 116.239 138.712C109.869 142.147 102.745 143.944 95.508 143.941Z" fill="#F7E38D"/>
<path d="M43.778 107.443C43.7718 99.0736 46.1235 90.8718 50.5635 83.7772C55.0036 76.6826 61.3523 70.9823 68.8825 67.3294C76.4126 63.6765 84.8195 62.2187 93.1399 63.1231C101.46 64.0275 109.358 67.2575 115.927 72.443H109.151C108.561 72.443 107.994 72.6775 107.577 73.095C107.16 73.5124 106.925 74.0786 106.925 74.669C106.925 75.2594 107.16 75.8256 107.577 76.243C107.994 76.6605 108.561 76.895 109.151 76.895H121.751C122.341 76.895 122.908 76.6605 123.325 76.243C123.742 75.8256 123.977 75.2594 123.977 74.669V62.069C123.977 61.4786 123.742 60.9124 123.325 60.495C122.908 60.0775 122.341 59.843 121.751 59.843C121.161 59.843 120.594 60.0775 120.177 60.495C119.76 60.9124 119.525 61.4786 119.525 62.069V69.636C109.822 61.535 97.3644 57.4968 84.7543 58.3652C72.1442 59.2336 60.3575 64.9414 51.8568 74.296C43.3562 83.6506 38.7993 95.9282 39.1383 108.564C39.4774 121.199 44.686 133.215 53.676 142.1C53.8828 142.307 54.1284 142.471 54.3986 142.583C54.6689 142.695 54.9585 142.752 55.251 142.752C55.5435 142.752 55.8331 142.695 56.1034 142.583C56.3736 142.471 56.6192 142.307 56.826 142.1C57.0328 141.893 57.1969 141.648 57.3088 141.377C57.4208 141.107 57.4784 140.818 57.4784 140.525C57.4784 140.233 57.4208 139.943 57.3088 139.673C57.1969 139.402 57.0328 139.157 56.826 138.95C52.6745 134.823 49.3834 129.913 47.1436 124.504C44.9038 119.096 43.7599 113.297 43.778 107.443Z" fill="black"/>
<path d="M70.651 152.936C69.307 152.285 67.984 151.536 66.71 150.78C66.1771 150.492 65.5541 150.42 64.9693 150.577C64.3845 150.735 63.8825 151.111 63.5667 151.628C63.2508 152.145 63.1452 152.763 63.2716 153.355C63.398 153.948 63.7467 154.469 64.246 154.812C65.646 155.666 67.109 156.464 68.586 157.185C69.1495 157.463 69.8005 157.507 70.3958 157.305C70.9911 157.104 71.482 156.674 71.7605 156.111C72.039 155.547 72.0822 154.896 71.8807 154.301C71.6792 153.705 71.2495 153.214 70.686 152.936H70.651Z" fill="black"/>
<path d="M128.443 88.018C128.701 88.5499 129.16 88.9575 129.718 89.1511C130.277 89.3447 130.89 89.3085 131.422 89.0505C131.953 88.7924 132.361 88.3337 132.555 87.7751C132.748 87.2165 132.712 86.6039 132.454 86.072C131.754 84.672 131.054 83.307 130.221 81.977C129.909 81.4822 129.416 81.1299 128.846 80.9962C128.277 80.8625 127.678 80.9581 127.179 81.2625C126.679 81.5669 126.32 82.0555 126.178 82.6227C126.036 83.19 126.123 83.7903 126.42 84.294C127.148 85.505 127.834 86.758 128.443 88.018Z" fill="black"/>
<path d="M83.461 157.017C81.991 156.772 80.514 156.45 79.065 156.065C78.4598 155.903 77.8152 155.989 77.273 156.303C76.7308 156.616 76.3355 157.133 76.174 157.738C76.0125 158.343 76.098 158.988 76.4118 159.53C76.7255 160.072 77.2418 160.467 77.847 160.629C79.436 161.056 81.067 161.406 82.684 161.679C83.2873 161.749 83.8946 161.585 84.3801 161.22C84.8655 160.855 85.192 160.317 85.2919 159.718C85.3917 159.119 85.2573 158.504 84.9165 158.001C84.5757 157.499 84.0545 157.146 83.461 157.017Z" fill="black"/>
<path d="M133.357 134.953C132.868 134.62 132.266 134.495 131.685 134.605C131.103 134.715 130.589 135.052 130.256 135.541C129.465 136.71 128.611 137.851 127.715 138.936C127.513 139.157 127.358 139.416 127.259 139.698C127.16 139.979 127.118 140.278 127.137 140.577C127.156 140.875 127.234 141.167 127.368 141.434C127.502 141.701 127.688 141.939 127.916 142.132C128.143 142.326 128.407 142.472 128.693 142.561C128.978 142.651 129.278 142.682 129.576 142.653C129.873 142.624 130.162 142.535 130.424 142.392C130.686 142.249 130.917 142.054 131.103 141.82L131.145 141.771C132.132 140.581 133.077 139.328 133.945 138.047C134.11 137.805 134.225 137.533 134.285 137.247C134.344 136.961 134.347 136.665 134.292 136.378C134.238 136.091 134.127 135.817 133.966 135.573C133.806 135.328 133.599 135.117 133.357 134.953Z" fill="black"/>
<path d="M121.373 146.874C120.218 147.826 119.007 148.736 117.775 149.569C117.286 149.933 116.955 150.471 116.853 151.073C116.752 151.674 116.886 152.291 117.228 152.796C117.57 153.301 118.094 153.654 118.69 153.782C119.286 153.909 119.909 153.802 120.428 153.482C121.779 152.565 123.109 151.564 124.383 150.514C124.622 150.316 124.82 150.074 124.965 149.8C125.11 149.525 125.2 149.225 125.229 148.917C125.258 148.608 125.227 148.296 125.135 148C125.044 147.704 124.896 147.428 124.698 147.189C124.5 146.95 124.258 146.752 123.984 146.607C123.709 146.462 123.409 146.372 123.101 146.343C122.792 146.314 122.48 146.345 122.184 146.437C121.888 146.528 121.612 146.676 121.373 146.874Z" fill="black"/>
<path d="M109.9 153.874C108.542 154.455 107.1 154.98 105.7 155.442C105.103 155.632 104.606 156.052 104.319 156.609C104.031 157.165 103.977 157.813 104.167 158.41C104.357 159.007 104.777 159.504 105.334 159.791C105.89 160.079 106.538 160.133 107.135 159.943C108.71 159.439 110.264 158.858 111.769 158.214C112.345 157.967 112.798 157.502 113.031 156.92C113.263 156.339 113.255 155.689 113.008 155.113C112.761 154.537 112.296 154.084 111.714 153.851C111.133 153.619 110.483 153.627 109.907 153.874H109.9Z" fill="black"/>
<path d="M97.762 157.388C96.285 157.472 94.773 157.493 93.268 157.437C92.9582 157.426 92.6492 157.475 92.3586 157.583C92.068 157.691 91.8015 157.855 91.5743 158.066C91.3471 158.277 91.1637 158.531 91.0346 158.812C90.9054 159.094 90.833 159.399 90.8215 159.708C90.81 160.018 90.8597 160.327 90.9676 160.618C91.0755 160.909 91.2396 161.175 91.4506 161.402C91.6615 161.629 91.9151 161.813 92.1969 161.942C92.4787 162.071 92.7832 162.144 93.093 162.155C94.745 162.218 96.411 162.204 98.035 162.106C98.3558 162.104 98.6728 162.036 98.9668 161.908C99.2607 161.779 99.5254 161.592 99.7448 161.358C99.9642 161.124 100.134 160.848 100.243 160.546C100.352 160.244 100.399 159.924 100.381 159.603C100.362 159.283 100.279 158.97 100.135 158.683C99.9918 158.396 99.7916 158.141 99.5467 157.934C99.3017 157.727 99.0172 157.571 98.7104 157.477C98.4036 157.384 98.0809 157.353 97.762 157.388Z" fill="black"/>
<path d="M69.489 102.9C69.4958 101.141 68.8895 99.4341 67.7742 98.0735C66.6589 96.7129 65.1044 95.7835 63.378 95.445C61.3376 94.9615 59.1937 95.1825 57.2949 96.0722C55.3962 96.9618 53.8542 98.4678 52.92 100.345C52.6527 100.872 52.6057 101.484 52.7895 102.046C52.9733 102.608 53.3727 103.074 53.9 103.341C54.4272 103.608 55.0391 103.655 55.601 103.471C56.1628 103.288 56.6287 102.888 56.896 102.361C57.3714 101.375 58.1709 100.582 59.1609 100.114C60.1508 99.6464 61.2713 99.5327 62.335 99.792C63.0764 99.9154 63.7516 100.293 64.2447 100.86C64.7378 101.427 65.0179 102.149 65.037 102.9C65.037 105.224 62.356 107.016 59.514 108.913C56.315 111.013 52.689 113.47 52.689 117.481C52.6908 118.07 52.9262 118.635 53.3434 119.051C53.7607 119.466 54.3258 119.7 54.915 119.7H67.263C67.8327 119.668 68.3686 119.419 68.7606 119.005C69.1526 118.59 69.371 118.041 69.371 117.471C69.371 116.9 69.1526 116.351 68.7606 115.936C68.3686 115.522 67.8327 115.273 67.263 115.241H58.436C59.5489 114.275 60.7355 113.397 61.985 112.616C65.506 110.264 69.489 107.604 69.489 102.9Z" fill="black"/>
<path d="M90.559 110.229C90.559 109.937 90.5014 109.647 90.3895 109.377C90.2777 109.107 90.1137 108.862 89.907 108.655C89.7003 108.448 89.4549 108.284 89.1849 108.172C88.9148 108.061 88.6253 108.003 88.333 108.003H86.52V96.166C86.5214 95.7045 86.3793 95.2539 86.1133 94.8767C85.8474 94.4995 85.4708 94.2143 85.0356 94.0605C84.6005 93.9067 84.1283 93.892 83.6844 94.0184C83.2405 94.1448 82.8469 94.4061 82.558 94.766L71.281 108.829C71.0164 109.156 70.8498 109.552 70.8008 109.97C70.7517 110.387 70.8222 110.811 71.0039 111.19C71.1856 111.57 71.4711 111.89 71.8274 112.114C72.1838 112.338 72.5962 112.456 73.017 112.455H82.068V118.755C82.0624 119.345 82.2916 119.914 82.7051 120.335C83.1186 120.757 83.6826 120.996 84.273 121.002C84.8634 121.008 85.4318 120.778 85.8532 120.365C86.2746 119.951 86.5144 119.387 86.52 118.797V112.497H88.333C88.6289 112.497 88.9218 112.438 89.1947 112.324C89.4675 112.209 89.7148 112.041 89.9221 111.83C90.1293 111.619 90.2924 111.369 90.4018 111.094C90.5111 110.819 90.5646 110.525 90.559 110.229ZM82.068 108.003H77.658L82.068 102.508V108.003Z" fill="black"/>
<path d="M101.962 92.729C101.384 92.6135 100.783 92.7322 100.292 93.059C99.8017 93.3858 99.4605 93.894 99.344 94.472L94.332 119.532C94.2738 119.819 94.2727 120.114 94.3289 120.402C94.385 120.689 94.4972 120.962 94.6591 121.206C94.821 121.45 95.0294 121.659 95.2724 121.822C95.5153 121.986 95.7881 122.099 96.075 122.157C96.2204 122.185 96.368 122.199 96.516 122.199C97.0318 122.198 97.5312 122.018 97.9293 121.69C98.3274 121.362 98.5998 120.906 98.7 120.4L103.712 95.34C103.827 94.7599 103.708 94.1577 103.38 93.6656C103.052 93.1734 102.542 92.8315 101.962 92.715V92.729Z" fill="black"/>
<path d="M113.4 119.7C113.844 119.699 114.277 119.565 114.644 119.316C115.011 119.066 115.294 118.712 115.458 118.3L123.816 98.252C123.929 97.9822 123.987 97.6929 123.988 97.4005C123.989 97.1081 123.932 96.8185 123.821 96.5481C123.71 96.2776 123.546 96.0318 123.34 95.8245C123.134 95.6172 122.889 95.4526 122.619 95.34C122.347 95.2232 122.054 95.1636 121.758 95.165H110.474C109.904 95.1969 109.368 95.4457 108.976 95.8604C108.584 96.275 108.366 96.8239 108.366 97.3945C108.366 97.9651 108.584 98.514 108.976 98.9287C109.368 99.3433 109.904 99.5921 110.474 99.624H118.412L111.342 116.585C111.228 116.856 111.17 117.146 111.169 117.439C111.168 117.733 111.225 118.024 111.337 118.295C111.449 118.566 111.613 118.813 111.821 119.02C112.028 119.228 112.275 119.392 112.546 119.504C112.815 119.626 113.105 119.692 113.4 119.7Z" fill="black"/>
<path d="M111.594 159.11H118.216" stroke="black" stroke-width="3" stroke-miterlimit="10" stroke-linecap="round"/>
<path d="M133.245 135.044C133.329 135.044 133.399 135.044 133.434 135.044C133.736 135.345 134.142 135.52 134.568 135.533C134.995 135.546 135.41 135.396 135.73 135.114C136.88 134.457 137.803 133.466 138.376 132.272C138.481 132.006 138.558 131.726 138.67 131.46C138.744 131.24 138.886 131.049 139.074 130.914C139.262 130.778 139.488 130.705 139.72 130.704C139.981 130.709 140.234 130.794 140.445 130.946C140.656 131.099 140.816 131.312 140.903 131.558C141.06 132.048 141.131 132.562 141.113 133.077C141.267 134.547 141.813 135.737 143.395 136.157C143.976 136.304 144.494 136.598 144.522 137.284C144.55 137.97 144.053 138.264 143.486 138.488C141.554 139.258 140.686 140.938 139.916 142.688C139.559 143.528 139.328 144.424 139.013 145.285C138.939 145.536 138.78 145.753 138.562 145.899C138.345 146.045 138.083 146.11 137.823 146.083C137.561 146.079 137.309 145.988 137.105 145.825C136.9 145.661 136.757 145.434 136.696 145.18C136.566 144.682 136.477 144.174 136.43 143.661C136.223 142.008 135.735 140.403 134.988 138.915C134.687 138.264 134.4 137.697 133.518 137.725C133.26 137.726 133.005 137.663 132.778 137.541C132.551 137.418 132.357 137.241 132.216 137.025C132.07 136.845 131.985 136.623 131.974 136.391C131.963 136.16 132.025 135.931 132.153 135.737C132.262 135.539 132.419 135.372 132.61 135.25C132.801 135.129 133.019 135.058 133.245 135.044ZM138.18 140.231C138.81 139.993 138.95 139.531 139.181 139.16C139.573 138.544 140.518 138.096 140.399 137.424C140.28 136.752 139.552 136.136 139.09 135.506C139.09 135.464 138.992 135.45 138.866 135.387C138.313 135.793 137.739 136.241 137.137 136.647C137.031 136.689 136.937 136.755 136.862 136.842C136.788 136.928 136.735 137.031 136.71 137.142C136.684 137.253 136.686 137.369 136.716 137.479C136.745 137.589 136.801 137.69 136.878 137.774C137.34 138.551 137.732 139.377 138.18 140.231Z" fill="black"/>
<path d="M43.337 67.382C43.414 67.382 43.491 67.382 43.526 67.382C43.8275 67.6845 44.2332 67.8603 44.6601 67.8733C45.087 67.8863 45.5027 67.7356 45.822 67.452C46.9717 66.7948 47.8945 65.8037 48.468 64.61C48.573 64.344 48.643 64.064 48.755 63.798C48.8316 63.5783 48.9743 63.3877 49.1636 63.2523C49.3528 63.1169 49.5793 63.0435 49.812 63.042C50.0717 63.0475 50.3235 63.1322 50.5337 63.2848C50.7439 63.4375 50.9024 63.6507 50.988 63.896C51.1509 64.3852 51.2244 64.8997 51.205 65.415C51.359 66.885 51.905 68.075 53.48 68.495C54.061 68.649 54.579 68.936 54.607 69.622C54.635 70.308 54.145 70.602 53.578 70.826C51.646 71.596 50.778 73.276 50.008 75.026C49.644 75.866 49.413 76.762 49.105 77.623C49.03 77.8734 48.8702 78.0899 48.6531 78.2354C48.436 78.381 48.1751 78.4466 47.915 78.421C47.6531 78.4184 47.3997 78.3281 47.1954 78.1643C46.991 78.0006 46.8476 77.773 46.788 77.518C46.6536 77.0207 46.5646 76.5123 46.522 75.999C46.3106 74.3474 45.8232 72.743 45.08 71.253C44.772 70.602 44.492 70.035 43.61 70.063C43.3516 70.0655 43.0967 70.0027 42.869 69.8803C42.6414 69.7579 42.4484 69.58 42.308 69.363C42.1611 69.1836 42.0751 68.962 42.0625 68.7304C42.0499 68.4989 42.1114 68.2693 42.238 68.075C42.3515 67.8793 42.5108 67.714 42.7022 67.5933C42.8936 67.4726 43.1114 67.4001 43.337 67.382ZM48.237 72.569C48.874 72.331 49.014 71.869 49.245 71.498C49.63 70.882 50.582 70.434 50.463 69.762C50.344 69.09 49.616 68.474 49.147 67.844C49.147 67.802 49.049 67.788 48.93 67.725C48.377 68.131 47.803 68.586 47.201 68.985C47.0949 69.0265 47.0005 69.0933 46.9261 69.1796C46.8516 69.2659 46.7994 69.369 46.7738 69.4801C46.7483 69.5911 46.7503 69.7068 46.7796 69.8169C46.8089 69.927 46.8646 70.0283 46.942 70.112C47.432 70.896 47.817 71.715 48.3 72.569H48.237Z" fill="black"/>
<path d="M113.078 14.259L112.049 14.7C108.136 16.415 104.244 18.9 102.487 22.792C101.885 24.129 101.577 25.711 102.214 27.034C102.62 27.7542 103.157 28.3927 103.796 28.917L113.645 38.017C114.646 38.948 115.808 39.942 117.18 39.893C118.552 39.844 119.511 38.899 120.435 38.003L129.262 29.456C130.018 28.721 130.977 27.93 131.999 28.175C132.544 28.3518 133.028 28.6765 133.399 29.113L141.743 37.212C142.443 37.912 143.192 38.668 143.283 39.648C143.395 40.852 142.485 41.874 141.638 42.735L135.338 49.084C133.798 50.638 132.16 52.444 132.202 54.628C132.237 56.245 133.196 57.68 134.127 59.003C135.667 61.208 143.423 67.109 143.927 67.403C145.621 68.3754 147.602 68.7269 149.527 68.397C154.056 67.445 156.051 62.552 157.29 58.597C159.215 52.472 160.79 45.913 159.25 39.697C157.85 33.845 153.881 28.952 149.681 24.633C143.661 18.452 136.381 12.789 127.792 11.823C122.85 11.235 117.768 12.348 113.078 14.259ZM122.129 29.841C122.451 30.156 122.619 30.352 122.192 30.772C120.715 32.214 119.273 33.705 117.845 35.203C117.757 35.3358 117.637 35.4448 117.497 35.5202C117.356 35.5956 117.199 35.635 117.04 35.635C116.881 35.635 116.724 35.5956 116.583 35.5202C116.443 35.4448 116.323 35.3358 116.235 35.203C112.945 31.983 109.667 28.7653 106.4 25.55C105.966 25.13 105.7 24.675 106.19 24.15C107.737 22.533 109.305 20.944 110.873 19.341C110.957 19.257 111.062 19.18 111.286 18.998C111.389 19.1836 111.508 19.3594 111.643 19.523C115.12 22.9717 118.615 26.411 122.129 29.841ZM152.46 59.542C152.81 59.878 152.803 60.081 152.46 60.417C150.976 61.9057 149.501 63.4083 148.036 64.925C147.952 65.0407 147.842 65.1348 147.715 65.1998C147.588 65.2647 147.447 65.2985 147.304 65.2985C147.162 65.2985 147.021 65.2647 146.894 65.1998C146.767 65.1348 146.657 65.0407 146.573 64.925L136.549 55.125C136.438 55.0468 136.346 54.9438 136.282 54.8241C136.217 54.7044 136.182 54.5714 136.178 54.4355C136.174 54.2996 136.201 54.1647 136.258 54.0414C136.316 53.918 136.401 53.8097 136.507 53.725C138.019 52.1617 139.536 50.61 141.057 49.07C141.148 48.979 141.253 48.902 141.323 48.839C141.61 48.839 141.715 49.035 141.848 49.168C145.385 52.626 148.923 56.084 152.46 59.542ZM126.7 15.652C130.786 16.1158 134.725 17.445 138.257 19.551C139.177 20.0941 140.022 20.7554 140.77 21.518C143.514 24.206 146.223 26.936 149.016 29.568C152.922 33.264 154.812 37.968 155.785 43.099C156.525 46.7994 155.997 50.6411 154.287 54.005C154.145 54.4018 153.904 54.7559 153.587 55.034C150.605 52.108 147.644 49.175 144.641 46.277C144.102 45.752 144.536 45.535 144.83 45.262C145.622 44.5922 146.258 43.7568 146.692 42.8146C147.126 41.8724 147.349 40.8464 147.343 39.809C147.355 38.9884 147.205 38.1734 146.899 37.4116C146.594 36.6497 146.141 35.9561 145.565 35.371C142.338 32.2 139.146 29.001 135.87 25.9C133.175 23.359 129.248 23.597 126.518 26.313C125.405 27.419 125.405 27.419 124.264 26.313L116.564 18.739C116.326 18.508 116.102 18.27 115.815 17.976C119.098 16.0493 122.916 15.2342 126.7 15.652Z" fill="#020202"/>
</svg>
